<?xml version="1.0" standalone="no"?>
<!DOCTYPE svg PUBLIC "-//W3C//DTD SVG 1.1//EN" "http://www.w3.org/Graphics/SVG/1.1/DTD/svg11.dtd" >
<!--
2013-9-30: Created.
-->
<svg>
<metadata>
Created by iconfont
</metadata>
<defs>

<font id="iconfont" horiz-adv-x="1024" >
  <font-face
    font-family="iconfont"
    font-weight="500"
    font-stretch="normal"
    units-per-em="1024"
    ascent="896"
    descent="-128"
  />
    <missing-glyph />
    
    <glyph glyph-name="niunai" unicode="&#58966;" d="M887.9872 443.072256 759.921664 600.560384 759.921664 725.686016c0 17.65888-15.357952 31.951872-34.29376 31.951872L307.109888 757.637888c-18.952192 0-34.292736-14.292992-34.292736-31.951872l0-124.068864L137.930752 454.625024c-5.285888-5.7856-8.226816-13.146112-8.226816-20.77696L129.703936-129.71136c0-17.642496 15.358976-31.95392 34.313216-31.95392l696.633344 0c18.914304 0 34.291712 14.311424 34.291712 31.95392L894.942208 423.799552C894.943232 430.74944 892.499968 437.520128 887.9872 443.072256zM691.337216 693.731072l0-84.733952L341.405696 608.99712l0 84.733952L691.337216 693.731072zM198.310912 414.683904l275.884032 0c11.379712 0 20.588544 8.579072 20.588544 19.165184 0 10.602496-9.208832 19.163136-20.588544 19.163136L226.702336 453.012224l106.474496 116.026368c0.443392 0.519168 0.78848 1.074176 1.2288 1.611776l350.854144 0L575.422464 444.146432c-4.92544-5.676032-7.631872-12.770304-7.631872-20.076544l0-521.8304-369.47968 0L198.310912 414.683904 198.310912 414.683904zM826.355712-97.760512l-189.96224 0L636.393472 412.748544l98.212864 113.106944 91.749376-112.802816L826.355712-97.760512z"  horiz-adv-x="1024" />

    
    <glyph glyph-name="shucai" unicode="&#59026;" d="M383.343138 400.996229 384.223218 401.559047 383.343138 400.996229ZM688.347954 563.851317c-5.005196-1.867534-9.558072-3.715625-13.241101-5.409197 68.989014-45.341674 79.613414-109.484553 79.613414-142.475945 0-12.892635-1.502275-20.985964-1.559583-21.283746l-4.482265-22.641673-14.707559 17.793248c-38.96398 47.15088-81.639644 67.282383-105.386437 75.544557 7.234048-24.3772 10.245761-46.407959 10.245761-65.812915 0-68.235081-35.028183-105.248066-37.035992-107.311051l-17.174852-17.630542-1.605633 24.563442c-4.702285 72.057129-51.610516 127.057791-69.833276 145.857972-18.361935-18.767436-65.753187-73.78447-70.455472-145.857972l-1.599493-24.563442-17.177922 17.630542c-2.021113 2.062985-37.042132 39.07597-37.042132 107.311051 0 19.404955 3.01069 41.435715 10.244738 65.812915-23.752933-8.262174-66.422457-28.393677-105.3936-75.544557l-14.699372-17.793248-4.490452 22.641673c-0.057307 0.298805-1.558559 8.392134-1.558559 21.279652 0 32.994462 10.623377 97.138364 79.619554 142.480039-3.684053 1.693572-8.245116 3.541663-13.253382 5.409197C222.189345 508.571293 143.808042 400.658538 143.808042 276.861c0-179.932022 165.55112-326.320067 369.053105-326.320067 203.493798 0 369.058222 146.388045 369.058222 326.320067C881.919369 400.652398 803.53602 508.571293 688.347954 563.851317zM393.084389 558.002099l-15.633689-8.367575c-70.644791-37.827537-83.429479-94.498234-84.601213-126.507252 57.698414 58.243519 116.710807 68.840878 119.44724 69.2809l18.67201 2.988054-6.688603-17.681708c-11.30288-29.898961-15.443347-56.002478-15.443347-78.196966 0-31.247678 8.188832-54.489008 16.139223-69.930699 17.100147 82.308611 78.1664 136.483464 81.051218 138.994658l7.227908 6.275937 7.184927-6.310729c2.862305-2.509147 63.332969-56.663534 80.326688-138.931213 7.957555 15.435551 16.127966 38.677904 16.127966 69.901023 0 22.193465-4.142513 48.296983-15.445393 78.196966l-6.686557 17.681708 18.67201-2.988054c2.729269-0.440022 61.745756-11.038404 119.4411-69.2809-1.165594 32.011064-13.958468 88.679715-84.595073 126.507252l-15.627549 8.367575 14.468096 10.238179c1.727412 1.219781 38.299827 26.412556 108.880147 32.457226-37.040085 22.923082-110.866466 53.644781-187.988028-0.670266l-10.566069-7.440459c0 0-32.010329 66.441225-44.585231 92.526323-12.559552-26.085098-44.577044-92.526323-44.577044-92.526323l-10.568116 7.440459c-77.122585 54.307883-150.945895 23.593348-187.988028 0.670266 70.575204-6.04467 107.159899-31.237445 108.880147-32.457226L393.084389 558.002099z"  horiz-adv-x="1024" />

    
    <glyph glyph-name="icon09" unicode="&#58886;" d="M260.60539 331.467689l37.939077 37.939077 364.895641 364.895641c17.084097 17.083074 45.039799 17.084097 62.123896 0l37.939077-37.939077c17.084097-17.084097 17.084097-45.039799 0-62.122873l-333.834204-333.834204 333.834204-333.833181c17.084097-17.084097 17.084097-45.039799 0-62.123896l-37.939077-37.939077c-17.084097-17.084097-45.039799-17.084097-62.123896 0l-364.895641 364.895641-37.939077 37.939077C243.521293 286.428913 243.521293 314.383592 260.60539 331.467689z"  horiz-adv-x="1024" />

    
    <glyph glyph-name="hufu" unicode="&#58922;" d="M290.681894-56.801289l-202.829522 0c-13.989619 0-25.391297 11.372002-25.391297 25.391297L62.461075 431.668809c0 14.015202 11.401678 25.38618 25.391297 25.38618l22.35924 0 0 35.826973c0 14.015202 11.342326 25.387203 25.387203 25.387203L242.936473 518.269166c14.043854 0 25.440415-11.372002 25.440415-25.387203l0-35.826973 22.303982 0c14.044878 0 25.391297-11.370978 25.391297-25.38618l0-463.078801C316.07319-45.429287 304.726771-56.801289 290.681894-56.801289zM113.238552-6.023812l152.057161 0L265.295714 406.277512l-22.35924 0c-13.989619 0-25.337061 11.375072-25.337061 25.391297l0 35.82288-56.611346 0 0-35.82288c0-14.016225-11.347442-25.391297-25.391297-25.391297l-22.35924 0L113.237529-6.023812zM505.685689-61.592408l-58.870806 0c-30.126134 0-87.786369 40.092114-87.786369 102.905718L359.028515 206.337807c0 39.489386 23.461341 63.388702 38.992059 79.221296 3.579525 3.63683 8.423857 8.565073 9.525957 10.54824l-1.043772 86.768179c0 14.014178 11.341303 25.38618 25.38618 25.38618l88.775906 0c14.044878 0 25.391297-11.372002 25.391297-25.38618l0-91.863221c0 3.111874 4.956895-1.846044 8.481162-5.454222 15.527648-15.83157 38.988989-39.761586 38.988989-79.221296l0-165.024497C593.526293-21.500295 535.811824-61.592408 505.685689-61.592408zM457.276143 357.483202l0-66.471924c0-17.569144-11.672854-29.463032-23.019273-41.000809-14.758122-15.064091-24.451902-26.242687-24.451902-43.673685l0-165.024497c0-33.267685 31.608905-51.108005 38.112016-52.210106l57.053414 0.082888c7.049556 1.569752 37.777395 19.331277 37.777395 52.126194L542.747793 206.337807c0 17.430998-9.692756 28.609595-24.450878 43.698245-11.343349 11.513218-23.019273 23.436782-23.019273 40.97625l0 66.471924L457.276143 357.484226zM834.526159 92.558437 676.689365 92.558437c-12.227486 0-22.693862 8.727779-24.948205 20.73423-35.523051 190.193737-90.045829 479.131405-94.284363 495.54319-4.627391 17.34811-2.811022 31.584346 5.449106 42.296315 7.876388 10.243295 20.045545 15.446807 36.293601 15.446807l312.867684 0c16.191774 0 28.41926-5.203512 36.236296-15.446807 8.261151-10.711969 10.134825-24.948205 5.508457-42.296315-4.296863-16.411785-58.761312-305.350476-94.284363-495.54319C857.214904 101.286216 846.749552 92.558437 834.526159 92.558437zM697.72547 143.334891l115.761514 0c17.569144 93.842295 78.753645 420.0938 89.87903 472.358141l-295.411103 0.10847C621.338732 551.092735 680.544159 235.360817 697.72547 143.334891zM834.526159-64.455619 676.689365-64.455619c-13.989619 0-25.391297 11.372002-25.391297 25.391297L651.298068 117.944618c0 14.015202 11.402701 25.391297 25.391297 25.391297l157.835771 0c14.044878 0 25.446555-11.375072 25.446555-25.391297l0-157.009963C859.972714-53.083617 848.570014-64.455619 834.526159-64.455619zM702.076568-13.677119l107.117646 0L809.194214 92.558437 702.076568 92.558437 702.076568-13.677119z"  horiz-adv-x="1024" />

    
    <glyph glyph-name="zuoye" unicode="&#58984;" d="M901.303 571.4L622.953 293.05999999999995 419.74 217.39599999999996l76.45 202.417 278.333 278.342c28.01 28.001 73.421 28.001 101.432 0l25.348-25.35C929.297 644.8050000000001 929.297 599.402 901.303 571.4zM481.292 279.01l121.984 45.42 6.828 6.828-76.049 76.058-6.896-6.898L481.292 279.01zM559.404 432.663l76.049-76.056 189.61 189.62-76.065 76.048L559.404 432.663zM876.094 647.957l-25.348 25.348c-13.971 13.97-36.73 13.979-50.698 0l-25.682-25.682 76.046-76.048 25.682 25.673C890.065 611.2280000000001 890.065 633.977 876.094 647.957zM223.02 199.30200000000002l0 35.854 176.254 0-13.532-35.854L223.02 199.30200000000002zM426.357 306.86199999999997L223.02 306.86199999999997l0 35.853 216.886 0L426.357 306.86199999999997zM223.02 557.8330000000001l179.265 0 0-35.853L223.02 521.98 223.02 557.8330000000001zM402.285 414.421L223.02 414.421l0 35.854 179.265 0L402.285 414.421zM617.404 235.15499999999997l0-35.854L443.128 199.30100000000004l96.32 35.854L617.404 235.15499999999997zM527.77 761.0989999999999l0-131.561c0-19.798 16.054-35.853 35.854-35.853l55.583 0-35.854-35.853-19.729 0c-39.601 0-71.707 32.106-71.707 71.705l0 161.34L169.241 790.877c-19.8 0-35.853-16.054-35.853-35.853l0-681.208c0-19.8 16.053-35.854 35.853-35.854l501.942 0c19.8 0 35.854 16.054 35.854 35.854L707.037 326.56500000000005l35.852 35.861 0-288.61c0-39.599-32.107-71.704-71.706-71.704L169.241 2.1119999999999663c-39.599 0-71.706 32.105-71.706 71.704L97.535 755.025c0 39.599 32.106 71.706 71.706 71.706 0 0 137.722 0 268.898 0 3.202 0 6.406 0 9.576 0 6.303 0 12.342 0 18.521 0l50.139 0L678.098 652.56l-25.069-25.069L527.77 761.0989999999999z"  horiz-adv-x="1024" />

    
    <glyph glyph-name="lingshi" unicode="&#58901;" d="M198.768019 310.104125c0 0.617054 0 1.233084 0 1.850138 0.190335 2.285043 0.533143 4.570085 0.548492 6.856152 0.184195 28.215622 0.296759 56.431244 0.473791 84.646865 0.491187 78.016865 0.988514 156.032706 1.524726 234.04957 0.090051 13.063527 7.4159 20.432355 20.314675 20.452821 33.304524 0.052189 66.609047 0.059352 99.912547-0.008186 12.07399-0.024559 19.753903-7.786337 19.760043-19.574824 0.01228-22.51069 0.054235-45.022403 0.083911-67.533093 0.002047-1.785669 0-3.572362 0-5.383614 5.876847 0 11.001565 0 16.487509 0 0 2.254344-0.001023 4.079922 0 5.906523 0.033769 43.6348 0.065492 87.269599 0.105401 130.904399 0.01228 13.944594 7.410783 21.305235 21.457708 21.311375 32.070416 0.014326 64.141856 0.007163 96.212272 0.004093 15.545044-0.002047 22.677489-7.096628 22.600741-22.575158-0.156566-31.299867-0.354064-62.59871-0.532119-93.898577-0.010233-1.785669-0.001023-3.571339-0.001023-5.341658 4.036943 0 7.349385 0 11.023054 0 0 1.678222-0.007163 3.037173 0.001023 4.397147 0.081864 14.084787 7.268544 21.253046 21.3871 21.273513 15.727193 0.022513 31.454386 0.005117 47.181579 0.00614 1.63729 0 3.27458 0 5.382591 0 0 2.452865 0.00614 4.269233-0.001023 6.084579-0.11154 30.837332-0.231267 61.674665-0.335644 92.510974-0.045025 13.198603 7.335059 20.7373 20.475334 20.754696 32.995485 0.041956 65.991993 0.039909 98.987478 0.001023 13.258978-0.016373 20.568455-7.439436 20.581758-20.609387 0.039909-40.397059 0.102331-80.794118 0.171915-121.190153 0.00307-1.642406 0.160659-3.28379 0.267083-5.324262 2.117221 0 3.784186 0 5.452175 0 15.572674 0 31.145347 0.01842 46.719044-0.00614 14.055111-0.021489 21.313422-7.343245 21.329794-21.372773 0.095167-80.947614 0.201591-161.89625 0.303922-242.843864 0.002047-1.924839 0-3.848655 0-6.089695 2.957355 0 5.101181 0.005117 7.246031-0.001023 15.208377-0.045025 23.155373-9.075703 20.99108-24.059975-5.833869-40.393989-11.720949-80.779791-17.61724-121.16457-7.587815-51.965535-15.238053-103.921861-22.801309-155.89149-7.253194-49.836035-14.427594-99.683327-21.648043-149.524478-0.551562-3.809769-0.978281-7.656377-1.834788-11.400654-2.056845-8.987698-9.717316-14.205537-20.6012-14.205537-146.477073-0.007163-292.955168-0.004093-439.432241-0.00307-1.079588 0-2.160199-0.011256-3.236718 0.044002-8.769734 0.449231-15.858176 6.467295-17.46886 15.098883-4.065596 21.794375-8.02886 43.608194-12.033058 65.414849-10.317996 56.181557-20.635993 112.362091-30.953989 168.543647-10.651594 57.997925-21.287839 115.998921-31.968086 173.990706C203.199958 287.519758 200.944592 298.804778 198.768019 310.104125zM784.984325 291.749082c-2.418073 0-4.089132 0-5.760191 0-32.689517 0-65.37801 0.014326-98.067526-0.013303-5.999644-0.005117-12.82305 1.568728-17.767666-0.76441-4.941546-2.331092-9.283434-8.076956-11.628852-13.33368-5.303796-11.882632-16.142655-17.902742-24.862247-26.188452-15.821337-15.035438-32.863479-28.420283-52.169173-38.763862-29.487591-15.799848-60.725036-22.51683-94.117564-18.283412-28.215622 3.577478-53.685713 14.402011-77.590146 29.314653-28.599362 17.841344-53.341882 40.258912-76.219939 64.831564-2.183735 2.345418-4.38282 3.28686-7.590885 3.269463-24.51637-0.12689-49.033763-0.069585-73.550133-0.069585-1.620917 0-3.241834 0-5.214768 0 3.301186-17.972327 6.469342-35.227316 9.639544-52.482305 10.320043-56.183604 20.637016-112.36823 30.963199-168.549787 10.659781-57.998949 21.419845-115.980501 31.837102-174.023452 0.944512-5.26491 3.00852-6.099928 7.740288-6.095835 133.224234 0.119727 266.447445 0.096191 399.671679 0.096191 1.079588 0 2.348488-0.358157 3.194762 0.086981 1.343601 0.707105 3.25309 1.809205 3.450589 2.990101 1.778506 10.631128 3.234671 21.315468 4.786003 31.984459 5.073552 34.902928 10.141988 69.806879 15.22168 104.708783 5.412266 37.187971 10.833743 74.374918 16.250102 111.562888 5.083785 34.900881 10.16757 69.802786 15.247262 104.70469C780.596388 261.508337 782.738168 276.284879 784.984325 291.749082zM443.840644 563.578094c0-1.873674-0.005117-3.529383 0.001023-5.185093 0.125867-37.615713 0.265036-75.230402 0.375553-112.846114 0.194428-65.828264 0.400113-131.656529 0.472767-197.484793 0.004093-3.435239 0.946558-5.117554 4.190439-6.460132 14.202467-5.880941 28.875654-9.751085 44.203758-10.854209 5.411243-0.38988 10.874675-0.062422 15.740496-0.062422 0 111.738897 0 222.332714 0 332.892763C486.793922 563.578094 465.570551 563.578094 443.840644 563.578094zM546.828226 240.869275c2.503007 1.13587 3.900843 1.735527 5.26798 2.397606 21.233604 10.272971 39.039131 25.073048 55.470359 41.751916 2.479471 2.517333 3.473101 5.000897 3.476171 8.488325 0.082888 97.093339 0.257873 194.186677 0.417509 291.280016 0.00307 1.614777 0 3.228531 0 4.797259-22.115694 0-43.462884 0-64.633043 0C546.828226 473.446307 546.828226 357.654095 546.828226 240.869275zM238.547001 620.169997c-0.603751-96.995101-1.205455-193.703677-1.807159-290.441928 22.893406 0 45.143153 0 67.193355 0 0 96.963379 0 193.560414 0 290.441928C281.976116 620.169997 260.487709 620.169997 238.547001 620.169997zM341.449649 527.26198c0-2.214435-0.004093-4.170996 0.001023-6.127558 0.161682-62.138222 0.370437-124.276445 0.403183-186.414667 0.00307-5.310959 0.89744-9.347902 5.129834-13.30605 14.514575-13.570063 28.370141-27.840068 42.756803-41.550325 5.143137-4.901637 11.082406-8.969279 16.738219-13.480013 0 87.431282 0 174.134992 0 260.878612C384.510374 527.26198 363.291097 527.26198 341.449649 527.26198zM694.352141 561.8528c0-77.535911 0-154.790412 0-232.160547 22.007223 0 43.318598 0 64.432475 0 0 77.56968 0 154.808832 0 232.160547C736.822418 561.8528 715.483414 561.8528 694.352141 561.8528zM656.933927 329.647227c0 1.819438 0.004093 3.190669-0.001023 4.560876-0.223081 69.050656-0.444115 138.101311-0.672312 207.15299-0.041956 12.793374-0.237407 25.586748-0.137123 38.378076 0.096191 12.276604 7.78122 19.796882 20.024056 19.944238 2.882654 0.034792 5.76633 0.005117 8.844435 0.005117 0.157589 1.428535 0.341784 2.318812 0.340761 3.210112-0.067538 34.217313-0.182149 68.434625-0.182149 102.651938 0 3.039219-1.030469 3.969405-4.015454 3.953032-19.11229-0.102331-38.22458-0.042979-57.33687-0.070608-1.300622-0.002047-2.601244-0.277316-3.640923-0.394996 0-27.405163 0-54.30072 0-81.591273 2.442632 0 4.424776 0.002047 6.40692 0 15.308661-0.019443 22.360264-7.05058 22.332634-22.280446-0.164752-90.167602-0.332575-180.335205-0.49835-270.502807-0.00307-1.921769 0-3.842515 0-6.019087C651.582035 329.017894 653.998061 329.302373 656.933927 329.647227zM406.209582 565.332041c0 5.242398 0.008186 9.996678-0.001023 14.750959-0.027629 13.872962 7.429203 21.328771 21.416775 21.36254 9.241478 0.022513 18.482957-0.007163 27.724435 0.01535 1.620917 0.004093 3.240811 0.149403 5.003967 0.237407 0 28.318976 0 56.114019 0 83.867106-21.772886 0-43.227524 0-64.954361 0 0-40.246633 0-80.088036 0-120.233362C398.996297 565.332041 402.304645 565.332041 406.209582 565.332041z"  horiz-adv-x="1024" />

    
    <glyph glyph-name="xizao" unicode="&#59019;" d="M946.490027 416.70528c6.925653-8.659627 8.802987-18.179413 5.625173-28.5696-3.1744-10.3936-8.659627-18.909867-16.452267-25.5488-7.79264-6.63552-16.592213-9.95328-26.40896-9.95328-9.813333 0-17.609387 6.058667-23.37792 18.179413-6.352213 12.120747-13.277867 25.398613-20.780373 39.8336-7.50592 14.42816-14.721707 28.28288-21.64736 41.560747-8.082773 15.008427-16.162133 30.306987-24.244907 45.892267 18.47296-9.233067 36.078933-18.75968 52.81792-28.5696 14.42816-8.082773 28.719787-16.88576 42.861227-26.412373C929.024 433.59104 939.564373 424.788053 946.490027 416.70528L946.490027 416.70528zM550.38976 246.990933c13.277867-16.162133 25.111893-32.037547 35.50208-47.622827 9.233067-13.277867 17.896107-27.562667 25.975467-42.861227 8.082773-15.29856 12.987733-29.58336 14.721707-42.861227 1.73056-12.701013-1.44384-21.937493-9.526613-27.712853-8.07936-5.771947-17.462613-8.512853-28.13952-8.22272-10.676907 0.28672-21.36064 3.464533-32.037547 9.5232-10.676907 6.06208-17.752747 14.865067-21.21728 26.412373-4.037973 11.543893-5.481813 24.961707-4.328107 40.260267 1.15712 15.29856 3.1744 29.876907 6.058667 43.728213C540.289707 213.803093 544.621227 230.251947 550.38976 246.990933L550.38976 246.990933zM830.457173 292.019627c15.008427-5.77536 29.730133-12.120747 44.158293-19.049813 12.127573-6.352213 24.24832-14.001493 36.369067-22.94784s21.64736-19.193173 28.573013-30.737067c6.925653-11.547307 8.369493-21.64736 4.328107-30.306987-4.037973-8.659627-10.676907-14.865067-19.913387-18.61632-9.23648-3.751253-19.339947-4.328107-30.306987-1.73056-10.970453 2.60096-19.9168 9.669973-26.842453 21.21728-6.925653 11.543893-12.701013 23.231147-17.31584 35.065173-4.61824 11.834027-8.369493 22.66112-11.257173 32.47104C834.788693 268.928427 832.191147 280.47232 830.457173 292.019627L830.457173 292.019627zM662.091093 379.47264c12.120747-7.502507 23.37792-15.872 33.768107-25.10848 8.659627-8.082773 17.17248-17.17248 25.541973-27.275947 8.369493-10.103467 13.99808-20.927147 16.88576-32.474453 2.88768-11.543893 1.877333-20.780373-3.03104-27.706027s-11.403947-11.257173-19.479893-12.987733c-8.082773-1.73056-16.738987-0.720213-25.97888 3.03104-9.233067 3.751253-16.448853 10.533547-21.643947 20.34688-5.198507 9.813333-8.512853 20.637013-9.956693 32.47104s-1.877333 22.94784-1.30048 33.338027C657.472853 355.227733 659.203413 367.34848 662.091093 379.47264L662.091093 379.47264zM730.494293 705.8624c11.547307 9.813333 24.681813 13.85472 39.400107 12.120747 14.718293-1.73056 26.9824-8.369493 36.795733-19.9168s13.85472-24.674987 12.120747-39.396693c-1.73056-14.721707-8.369493-26.985813-19.913387-36.80256l-293.536427-239.848107c-11.547307-9.813333-24.681813-13.85472-39.400107-12.120747-14.718293 1.73056-26.985813 8.369493-36.795733 19.9168-9.813333 11.543893-13.858133 24.674987-12.120747 39.396693 1.73056 14.718293 8.36608 26.985813 19.913387 36.795733l99.577173 81.394347c-5.195093 3.464533-12.41088 8.082773-21.64736 13.858133-9.233067 5.771947-19.9168 11.39712-32.037547 16.88576-12.120747 5.481813-25.10848 10.09664-38.9632 13.85472-13.85472 3.751253-27.99616 5.628587-42.427733 5.628587-17.892693 0-36.795733-2.020693-56.715947-6.06208-19.9168-4.037973-38.099627-11.543893-54.54848-22.510933-16.452267-10.96704-30.016853-26.262187-40.697173-45.892267-10.683733-19.623253-16.022187-45.02528-16.022187-76.199253 0-32.324267 5.338453-61.764267 16.022187-88.32 10.676907-26.555733 23.954773-51.950933 39.830187-76.199253 15.875413-24.244907 33.051307-47.91296 51.524267-71.00416 18.469547-23.087787 35.64544-47.479467 51.51744-73.168213s29.149867-53.394773 39.830187-83.124907c10.683733-29.72672 16.022187-63.064747 16.022187-100.010667l0-124.685653-106.502827 0 0 133.34528c0 23.0912-5.338453 46.759253-16.018773 71.00416-10.68032 24.24832-24.10496 49.210027-40.26368 74.898773-16.165547 25.69216-33.62816 51.667627-52.38784 77.929813-18.75968 26.2656-36.222293 53.111467-52.38784 80.530773-16.162133 27.419307-29.58336 54.981973-40.267093 82.694827-10.676907 27.706027-16.01536 55.702187-16.01536 83.98848 0 84.282027 23.954773 149.510827 71.867733 195.689813C244.16256 676.71936 313.72288 699.803733 404.923733 699.803733c36.94592 0 68.406613-3.1744 94.38208-9.5232 25.975467-6.352213 47.479467-14.001493 64.508587-22.94784s30.306987-18.039467 39.8336-27.275947c9.5232-9.233067 16.305493-16.452267 20.34688-21.64736L730.494293 705.8624zM730.494293 702.449067"  horiz-adv-x="1024" />

    
    <glyph glyph-name="shufa" unicode="&#58892;" d="M938.504647 649.707205l-2.353553-5.01409c-42.159288-91.379235-100.179474-174.469871-171.40002-245.588088L660.069152 294.627761c-11.972419-11.870091-31.210153-11.870091-43.182572 0l-93.323474 93.118817c-11.972419 11.972419-11.972419 31.312481 0 43.284901l102.635355 102.430699c73.369441 73.164785 159.529929 132.208254 254.388328 174.060558l0 0C918.038973 723.383631 950.067753 689.615269 938.504647 649.707205zM604.095533 268.022384 496.855401 375.364845c-8.083941 8.083941-21.079644 8.083941-29.163585 0l-14.837614-14.837614c-31.619466-31.41481-28.24263-88.821025 9.721195-126.580194 37.963825-37.861497 95.267713-41.136005 126.887179-9.721195l14.632957 14.632957C612.179474 246.840412 612.179474 259.938443 604.095533 268.022384zM432.797842-10.106126c-5.321075-5.321075-10.949136-10.02818-16.679524-14.4283-119.826521-98.235235-279.151794-45.22914-328.576397-10.02818 60.88538 9.925852 68.764665 132.617568 68.764665 132.617568l0.204657 0.102328c1.534926 41.238333 18.930748 83.192965 51.778155 115.835715 65.080843 64.773858 167.920855 67.229739 229.931848 5.423404C500.129909 157.405416 497.776357 54.770061 432.797842-10.106126z"  horiz-adv-x="1024" />

    
    <glyph glyph-name="jianshen" unicode="&#58888;" d="M335.722204-92.94037c337.12925 109.217471 588.047 219.146139 589.375252 257.428024 1.070378 31.000038-220.046648-12.322653-182.245717-1.489934 115.198695 33.025161 200.597691 47.278793 214.715223 18.426675 24.469298-50.015114-147.641595-157.275-384.428509-239.564167-236.793054-82.289168-462.131219-115.233488-486.600517-65.217351C69.026096-87.56085 187.727569-19.755558 315.39832 28.999866c23.696702 9.05012-195.225333-107.591437-193.273888-130.543172C124.942617-134.717869 298.632471-104.958078 335.722204-92.94037zM976.841957 554.69375C934.596807 659.128287 841.414545 710.329413 841.414545 710.329413s-40.73475 11.096732-74.491575 6.768147c-26.731828-3.428076-38.824237-20.234857-54.174853-33.831526-5.466502-4.850471 4.477988-41.188074 27.091008-47.37396 11.286044-3.082198 20.018939 14.171768 27.083845 13.535271 8.806573-0.785899 15.011902-11.862165 20.316721-6.768147 31.094182 29.881564 32.890085 26.690896 60.943001 0 15.398712-14.639418 14.409175-61.525262 20.316721-87.965447 5.887081-26.366508 25.457812-45.835931 27.083845-54.141084 5.995551-30.586622-37.374212-3.888564-74.484412-13.528108-27.517727-7.153934-44.413536-48.742121-67.717288-47.37396-80.094176 4.708232-102.71436-96.04138-155.751297-60.902068-9.863648 6.544043-38.120203 29.887704-42.310641 52.746318 0.073678 4.062526-2.1295 21.267373-2.046612 24.239054 0.276293 9.927093 17.273409 17.755386 17.273409 17.755386s7.384178-5.514597 13.542434 6.768147c6.246261 12.464893 12.504802 41.970904 3.210112 51.258431-25.823132 26.685779-5.856381 33.834596-9.838066 56.295144-1.208525 6.818289-4.861728 17.287735-13.054317 25.739221-13.370519 13.793144-31.144324 18.705014-46.157249 20.054755-15.433504 3.078105-52.228525 7.385201-74.135464-15.229866-35.193547-36.331463 13.352099-53.246715-20.322861-88.067778-7.980765-13.536294 0.521886-34.942837 6.774287-47.421033 6.158257-12.296047 13.548574-6.774287 13.548574-6.774287s8.960069-11.000542 9.031701-23.468504c0.037862-6.630001-0.341784-24.019043 0.419556-28.859281-4.086062-27.164686-26.678616-35.970236-36.548404-42.514279-53.057403-35.17922-75.683726 65.685002-155.811672 60.969607-23.310915-1.36816-40.212864 40.259936-67.743894 47.421033-37.130665 9.653871-80.513732-17.077957-74.518181 13.548574 1.626034 8.305153 21.203928 27.802206 27.098171 54.19532 5.907547 26.473955 4.925173 73.407893 20.322861 88.067778 28.066219 26.718525 29.862121 29.915333 60.969607 0 5.304819-5.101181 11.516288 5.982248 20.322861 6.774287 7.065929 0.636496 15.804964-16.637935 27.098171-13.548574 22.620184 6.192026 32.571836 42.570561 27.098171 47.421033-15.350616 13.616112-27.450189 30.43722-54.19532 33.872458-33.770128 4.335748-74.518181-6.774287-74.518181-6.774287s-93.223195-51.255361-135.488811-155.811672c-15.303544-37.849026-29.17753-54.520731-27.098171-74.518181 2.771113-26.66429 27.585265-54.019311 54.19532-94.842065 41.425482-63.544245 101.616352-67.743894 101.616352-67.743894s39.643905-5.649674 60.969607-40.646746c11.029194-18.0941 14.680351-55.685253 40.646746-94.842065 23.351847-35.20685 74.633814-59.459207 88.067778-94.842065 23.7581-62.575174 20.322861-135.488811 20.322861-135.488811l142.263098 47.421033 0.010233 0.961908 119.6818 37.638225c0 0-3.488451-15.236006 20.255323 47.27163 13.426801 35.341926 64.689325 59.567677 88.026846 94.733595 25.959232 39.115879 29.611411 76.6661 40.633443 94.740758 21.318538 34.95614 60.943001 40.59865 60.943001 40.59865s60.170404 4.199649 101.57542 67.670216c26.602891 40.781822 51.404764 68.103074 54.174853 94.740758C1006.006184 500.234417 992.138338 516.879516 976.841957 554.69375zM515.497661-121.756673c93.557816 25.691125 197.87672 59.107189 294.433846 119.176286 109.237937 58.430784 179.189102 125.59037 170.982186 125.068484 0 0 9.398044-25.990954-15.764032-51.664683-55.362912-56.487525-219.825614-149.954267-381.910153-193.242166-285.430798-76.226079-450.145234-52.972469-450.145234-52.972469S299.069423-181.186204 515.497661-121.756673z"  horiz-adv-x="1024" />

    
    <glyph glyph-name="fuwocheng" unicode="&#58895;" d="M244 488m-80 0a5 5 0 1 1 160 0 5 5 0 1 1-160 0ZM307.888 442.416l5.728 17.536c8.432 25.824 36.192 39.92 62.016 31.488l262.8-85.792c25.824-8.432 39.92-36.192 31.488-62.016l-5.728-17.536c-8.432-25.824-36.192-39.92-62.016-31.488l-262.8 85.792C313.552 388.848 299.456 416.608 307.888 442.416zM568.464 373.168l4.624 7.744c9.872 16.544 31.28 21.952 47.824 12.096l260.88-155.616c16.544-9.872 21.952-31.28 12.096-47.824l-4.624-7.744c-9.872-16.544-31.28-21.952-47.824-12.096l-260.88 155.616C564 335.20000000000005 558.592 356.624 568.464 373.168zM166.928 207.264l-0.032 0.032c-11.328 8.672-13.472 24.88-4.816 36.192l140.48 183.536c8.672 11.328 24.88 13.472 36.192 4.816l0.032-0.032c11.328-8.672 13.472-24.88 4.816-36.192l-140.48-183.536C194.448 200.75199999999995 178.24 198.59199999999998 166.928 207.264zM268.304 252.51199999999994l-9.216 4.672c-11.968 6.08-16.752 20.72-10.672 32.704l71.888 141.472c6.08 11.968 20.72 16.752 32.704 10.672l9.216-4.672c11.968-6.08 16.752-20.72 10.672-32.704l-71.888-141.472C294.912 251.20000000000005 280.272 246.43200000000002 268.304 252.51199999999994z"  horiz-adv-x="1024" />

    
    <glyph glyph-name="font11" unicode="&#58912;" d="M773.312-52c-104.512 0-186.688 74.432-186.688 169.216 0 94.784 82.112 169.216 186.688 169.216S960 212 960 117.216C960 22.432 877.888-52 773.312-52zM773.312 235.68c-70.912 0-130.688-54.144-130.688-118.464s59.712-118.464 130.688-118.464 130.688 54.144 130.688 118.464S844.288 235.68 773.312 235.68zM553.088 438.752 467.2 360.928l82.112-57.536 0-219.968-67.2 0L482.112 252.64 355.2 320.288C336.512 330.464 325.312 350.752 325.312 371.04c0 16.96 7.488 30.464 18.688 40.64l138.112 125.248c11.2 10.176 26.112 16.896 44.8 16.896 26.112 0 44.8-10.176 56-27.072l70.912-111.68 119.488 0 0-60.928-156.8 0L553.088 438.752zM661.312 530.144c-37.312 0-67.2 27.072-67.2 60.928 0 33.856 29.888 60.928 67.2 60.928 37.312 0 67.2-27.072 67.2-60.928C728.512 557.216 698.688 530.144 661.312 530.144zM437.312 117.216c0-94.784-82.112-169.216-186.688-169.216C146.112-52 64 22.432 64 117.216c0 94.784 82.112 169.216 186.688 169.216C355.2 286.432 437.312 212 437.312 117.216zM250.688 235.68c-70.912 0-130.688-54.144-130.688-118.464s59.712-118.464 130.688-118.464c70.912 0 130.688 54.144 130.688 118.464S321.6 235.68 250.688 235.68z"  horiz-adv-x="1024" />

    
    <glyph glyph-name="talk" unicode="&#59024;" d="M373.304889 657.066667c-7.509333-40.618667-34.588444-74.296889-71.111111-91.022222l45.852444 0c39.253333 0 75.548444-22.869333 92.501333-58.254222l64.853333-158.72c12.515556-26.965333 9.784889-63.601778-26.055111-80.896-8.305778-4.096-17.294222-6.030222-26.624-6.030222-23.665778 0-46.535111 13.425778-55.637333 32.540444L364.088889 357.944889 364.088889 224.71111099999996l190.350222 0 0-105.472-153.941333-62.577778c-11.605333-4.778667-17.180444-18.090667-12.401778-29.696 3.527111-8.874667 12.060444-14.222222 21.048889-14.222222 2.844444 0 5.688889 0.568889 8.533333 1.706667l136.760889 55.637333L554.439111 19.911111000000005c0-12.515556 10.24-22.755556 22.755556-22.755556 12.515556 0 22.755556 10.24 22.755556 22.755556l0 50.403556 136.874667-54.727111c11.719111-4.664889 24.917333 1.024 29.582222 12.629333 4.664889 11.719111-1.024 24.917333-12.629333 29.582222l-153.827556 61.553778L599.950222 224.71111099999996l250.311111 0c31.402667 0 56.888889 25.486222 56.888889 56.888889L907.150222 657.066667 373.304889 657.066667zM819.2 327.11111100000005L557.511111 327.11111100000005l0 34.133333 261.688889 0L819.2 327.11111100000005zM819.2 429.511111L523.377778 429.511111l0 34.133333 295.822222 0L819.2 429.511111zM819.2 531.911111L477.866667 531.911111l0 34.133333 341.333333 0L819.2 531.911111zM941.283556 725.788444l0-0.910222c0-24.8832-20.1728-45.056-45.056-45.056L375.466667 679.822222c0 35.874133-15.2576 68.175644-39.5264 91.022222L896.227556 770.844444C921.110756 770.844444 941.283556 750.671644 941.283556 725.788444zM147.911111 679.822222c0 56.558933 45.841067 102.4 102.4 102.4s102.4-45.841067 102.4-102.4c0-56.558933-45.841067-102.4-102.4-102.4S147.911111 623.263289 147.911111 679.822222zM469.481244 288.64284399999997c-20.138667-9.728-44.623644 0.671289-51.882667 15.883378l-76.231111 146.386489L341.333333 55.97866699999997c0-23.779556-17.396622-44.999111-41.0624-47.240533C273.123556 6.1781330000000025 250.311111 27.43182200000001 250.311111 54.044444c0-26.612622-22.812444-47.877689-49.959822-45.294933C176.685511 10.990933000000041 159.288889 32.21048900000005 159.288889 55.97866699999997L159.288889 292.97777799999994c0-19.478756-16.213333-35.077689-35.908267-34.087822C104.914489 259.82293300000003 91.022222 276.35484399999996 91.022222 294.85511099999997L91.022222 384l0 79.644444c0 43.986489 35.657956 79.644444 79.644444 79.644444l177.436444 0c30.697244 0 58.663822-17.635556 71.873422-45.340444l64.546133-158.048711C491.793067 324.67626700000005 494.1824 300.56675600000005 469.481244 288.64284399999997zM147.911111 679.822222c0 56.558933 45.841067 102.4 102.4 102.4s102.4-45.841067 102.4-102.4c0-56.558933-45.841067-102.4-102.4-102.4S147.911111 623.263289 147.911111 679.822222zM469.481244 288.64284399999997c-20.138667-9.728-44.623644 0.671289-51.882667 15.883378l-76.231111 146.386489L341.333333 55.97866699999997c0-23.779556-17.396622-44.999111-41.0624-47.240533C273.123556 6.1781330000000025 250.311111 27.43182200000001 250.311111 54.044444c0-26.612622-22.812444-47.877689-49.959822-45.294933C176.685511 10.990933000000041 159.288889 32.21048900000005 159.288889 55.97866699999997L159.288889 292.97777799999994c0-19.478756-16.213333-35.077689-35.908267-34.087822C104.914489 259.82293300000003 91.022222 276.35484399999996 91.022222 294.85511099999997L91.022222 384l0 79.644444c0 43.986489 35.657956 79.644444 79.644444 79.644444l177.436444 0c30.697244 0 58.663822-17.635556 71.873422-45.340444l64.546133-158.048711C491.793067 324.67626700000005 494.1824 300.56675600000005 469.481244 288.64284399999997z"  horiz-adv-x="1024" />

    
    <glyph glyph-name="jiao" unicode="&#58913;" d="M433.63777 726.021677c63.466474 9.241478 60.636009 106.242719-13.429871 105.309464-12.04943-3.282766-20.713764-5.54018-28.808116-12.263301C354.279351 788.240741 376.605845 717.7165239999999 433.63777 726.021677zM314.898435 737.700671c50.749848 7.429203 48.278563 86.87665-11.484565 86.037539-8.854669-2.402723-15.686261-3.964288-21.802562-8.759501C249.695411 789.954779 266.647501 730.6378119999999 314.898435 737.700671zM225.160621 720.764953c40.46869 5.211698 39.162952 66.204841-5.450129 67.156516-6.147-1.480724-11.441587-1.837858-15.962553-4.671393C176.613952 766.245797 186.517509 715.789639 225.160621 720.764953zM153.138284 686.505685c35.71134 4.154623 33.609469 54.240345-3.504824 53.532217C113.796254 731.365382 121.565195 682.834063 153.138284 686.505685zM285.699416 708.112796c-20.572548-5.339612-38.868239-6.217608-56.257282-12.847609-58.645678-22.361287-103.347786-72.075549-117.961622-138.40114-6.232958-28.287253-7.673773-67.657936-3.892657-98.886171l0-19.466354c1.620917-16.219403 3.243881-32.444946 4.865821-48.66435 13.716396-93.323479 40.879036-191.875029 98.496292-240.792135 23.273053-19.756973 60.260455-46.27493 107.8401-40.48711 71.513754 8.699126 123.611296 49.213865 123.606179 129.057331 0 24.709775-2.822278 42.727127-10.120498 59.565631-7.850805 18.113543-19.293415 32.261775-30.367635 47.105854-5.353938 7.18054-12.423961 13.932314-16.154935 22.581298-1.777483 4.118807-2.282996 10.335393-0.779759 15.182794 6.255471 20.159132 34.716686 41.384549 50.028417 54.115502 19.163455 15.931854 37.919634 37.70474 48.468898 61.899792 9.850345 22.598694 17.279548 56.222489 12.847609 90.322122C483.267097 688.808124 400.100956 709.08289 285.699416 708.112796zM116.152928 639.009951c23.577998 3.031033 23.000853 40.343847-3.698229 39.71042C84.741521 671.1519989999999 92.057137 635.912403 116.152928 639.009951zM608.246553 554.9177179999999c61.32674 11.151991 57.078996 106.207927-16.35141 105.308441-12.727882-4.260024-20.514219-6.181793-29.196972-13.625322C525.806959 614.9786280000001 551.728328 544.63963 608.246553 554.9177179999999zM723.677539 566.402283c50.704822 7.423063 47.309492 86.871533-11.486612 86.038562-9.166777-2.490727-16.629749-4.112668-22.967084-9.149381C657.352971 617.9646359999999 675.645592 559.371146 723.677539 566.402283zM807.187511 549.467589c40.46869 5.211698 39.162952 66.204841-5.452175 67.155493-6.148024-1.480724-11.441587-1.837858-15.962553-4.671393C758.638795 594.94741 768.540306 544.4912509999999 807.187511 549.467589zM873.369839 515.2083210000001c35.363416 4.113691 33.787524 54.246485-3.502777 53.531194C833.807798 560.012759 841.566506 511.508046 873.369839 515.2083210000001zM760.07961 533.8949150000001c-19.533892 3.604084-44.167942 3.142573-67.546396 2.919493-9.732665-0.973164-19.466354-1.946328-29.197996-2.919493-12.326746-2.4017-24.658609-4.802376-36.986379-7.203052-72.78777-20.549012-112.952538-74.53353-95.382371-169.353083 3.282766-17.706267 10.193153-33.516348 18.494213-46.52257 9.625218-15.081487 21.466917-30.055526 34.841529-41.461297 16.653285-14.202467 50.625004-37.706787 55.672974-61.318554 3.602038-16.848737-25.984814-44.967144-33.482579-55.866379-6.822382-9.91993-12.726859-21.021779-17.322527-33.093722-7.626701-20.019962-10.628058-49.368384-6.03546-74.356498 10.206456-55.537897 42.816155-87.711667 93.825922-102.195543 12.659321-3.594875 29.401634-7.361665 46.715975-5.257747 106.234533 12.932544 154.585751 115.737978 176.165232 213.541491 4.65195 21.084201 6.951319 42.571584 11.095709 65.209164 5.679349 31.029714 6.42534 64.355727 6.423293 101.027951-0.00307 27.773554-0.026606 53.468772-6.03546 74.748425C890.867352 464.263022 838.168106 519.480624 760.07961 533.8949150000001zM908.603295 507.421984c-27.711132-7.568373-20.399609-42.807968 3.696182-39.71042C935.878498 470.742597 935.301354 508.05541 908.603295 507.421984z"  horiz-adv-x="1024" />

    
    <glyph glyph-name="yangwoqizuo" unicode="&#58916;" d="M328.179926 678.511617c0 0 3.210112 21.931498-11.768021 23.001877 0 0-50.285267 5.884011-53.494355-6.4192l-12.30321-137.479141c0 0-4.01136-27.548426 3.973498-34.015721 0 0 7.393387-8.911974 66.10251-7.173376l94.684476-2.27174 123.570363-113.810069c0 0 44.400233-35.840276 87.730087 0l149.782352 95.217618 5.885034-140.15304-19.257599 41.724287c0 0 3.477194 42.261523-31.027667 48.145533 0 0-34.501792 7.221472-48.14451-20.327978 0 0-10.964726-29.4221 11.770068-46.004777 0 0 20.596084-13.105482 43.330878-4.815679l8.023744-18.721387L168.768263 143.573185c0 0-73.018014-11.768021-54.564733-71.14741 0 0 13.374612-56.70242 76.496232-33.700543 0 0 33.166377 14.440897 24.607444 58.842153 0 0-3.745301 15.511275-10.69969 20.86419l549.382399 208.625528 76.496232-232.165664c0 0-22.198581-18.185174-3.744277-47.606251 0 0 18.993586-25.408693 50.285267-8.024767 0 0 26.213012 15.244192 11.234879 47.075155 0 0-8.558933 16.046464-27.282367 19.791765l-44.934398 140.689253c0 0 43.862997-9.630335 49.212842 31.024597l-0.534166 281.915741c0 0-1.604544 55.633065-46.003753 57.773821 0 0-19.257599 3.744277-42.260499-9.629311l-156.737764-90.940199c0 0-40.653909 17.117866-102.172007 94.683453 0 0-16.850783 32.363082-44.401256 34.502815 0 0-17.384949-0.535189-37.981033-17.384949 0 0-26.210965-16.316617-45.469588-41.190121l-67.938322-1.069355L328.179926 678.511617zM670.006152 335.34793c0 0 26.077935 10.833743 22.868847 26.881231 0 0-7.222495 33.30043-22.868847 40.120766 0 0-9.764388 4.680603-26.881231-2.807952L203.003995 234.245278c0 0-14.376429-4.680603-11.634991-21.263279 0 0 4.41352-28.887934 19.257599-38.517245 0 0 9.828856-7.824199 26.479071 0L670.006152 335.34793zM407.616116 699.641867m-67.134003 0a65.605 65.605 0 1 0 134.268006 0 65.605 65.605 0 1 0-134.268006 0Z"  horiz-adv-x="1024" />

    
    <glyph glyph-name="yanjiusheng" unicode="&#58890;" d="M84.667284 576.522115L531.710544 734.567712 974.238215 572.006526 535.097235 286.39555499999994ZM77.893901 578.779909L81.280593 201.72827099999995 38.382502 150.92790100000002ZM81.366389 202.872973L125.30758 150.92790100000002 81.366389 202.872973ZM234.058756 412.832032c-6.355691 2.781603-12.230471-193.605856-9.031177-209.95906 0 0-0.90086-11.869224 127.782123-124.776999 33.668228-22.036072 88.966124-60.377934 129.606421-72.421008 0 0 64.724188-7.52297 83.538387 3.011898 21.826097 6.019279 245.722521 145.06328 288.997663 220.509732C852.317326 289.782246 840.651303 394.769679 828.610486 412.832032c-9.783022 2.257794-279.964228-201.28913-295.016942-204.879023S258.142647 402.294907 234.058756 412.832032z"  horiz-adv-x="1024" />

    
    <glyph glyph-name="dazuo" unicode="&#58924;" d="M862.321202 18.818857c0-43.884486-35.503609-79.438237-79.295997-79.438237L247.804341-60.61938c-43.798529 0-79.292927 35.553751-79.292927 79.438237l0 51.061956c0 43.868113 35.494399 79.444377 79.292927 79.444377l535.220864 0c43.792389 0 79.295997-35.576263 79.295997-79.444377L862.321202 18.818857zM448.459337 504.705106c0 0-92.587722-26.439162-129.399115-35.108612-36.812417-8.665357-36.812417-47.067992-36.812417-47.067992s0-158.897963 0-220.224704c0-61.33288 36.812417-52.978609 36.812417-52.978609l192.563714 0-0.00614 320.272327C511.617795 502.737288 448.459337 504.705106 448.459337 504.705106zM511.634168 469.596494l-0.011256-320.272327 192.570877 0c0 0 36.808324-8.353248 36.808324 52.978609 0 61.327764 0 220.224704 0 220.224704s0 38.402635-36.808324 47.067992c-36.81958 8.66945-129.406279 35.108612-129.406279 35.108612S511.634168 502.737288 511.634168 469.596494zM511.617795 697.574788c-96.122221 0-87.159082-51.148937-87.159082-114.281813 0-63.088874 39.025828-114.251114 87.159082-114.251114 48.116881 0 87.132476 51.16224 87.132476 114.251114C598.750271 646.425851 623.750665 697.574788 511.617795 697.574788zM557.237809 753.867886c3.258207 6.635117 5.225001 13.981433 5.225001 21.86396 0 27.683503-22.465664 50.122561-50.146097 50.122561-27.6702 0-50.109258-22.439058-50.109258-50.122561 0-7.642051 1.849114-14.798031 4.897543-21.278629-157.521616-81.496106-38.033221-198.765973-38.033221-198.765973l0 88.36556 82.551134 0 82.557274 0 0-88.36556C594.180186 555.686221 713.076086 672.393269 557.237809 753.867886z"  horiz-adv-x="1024" />

    
    <glyph glyph-name="daren" unicode="&#58914;" d="M277.002376 143.825582c9.922672-9.761382 9.922672-25.572662 0-35.326049L111.978662-48.750451c-9.922672-9.755386-26.003769-9.755386-35.932038 0-9.917276 9.756385-9.917276 25.572662 0 35.326848l165.02911 157.248985C250.998607 153.581967 267.079104 153.581967 277.002376 143.825582zM955.387231 214.816251c10.024204 21.168648 7.305047 46.522458-7.149153 65.612315l-140.636249 185.81162 74.127542 218.866608c7.788719 22.983817 1.457012 48.769334-16.269969 66.137958-17.711991 17.347039-43.627221 23.152103-66.465736 14.910291L581.719578 687.532549l-188.688669 136.809843c-19.38086 14.063465-44.785635 16.260375-65.718243 5.776484-20.978177-10.51687-33.965971-31.998705-33.697153-55.638077l2.504302-238.819081-191.876508-139.880361c-19.330894-14.052472-28.603007-38.114558-23.970148-61.979378 2.577253-13.092124 9.116819-24.876134 18.344562-33.919802 7.592252-7.43396 17.016863-13.032164 27.550721-16.113075l219.331693-63.25991 67.774849-218.014586c3.294167-10.460908 9.087239-19.768597 16.657106-27.186568 9.251128-9.064654 21.15106-15.340399 34.313735-17.671819 23.946564-4.134197 47.798992 5.648171 61.477718 25.247882l135.88447 194.723378 238.836469 2.381385C924.082656 180.207915 945.278285 193.648602 955.387231 214.816251z"  horiz-adv-x="1024" />

    
    <glyph glyph-name="chifan" unicode="&#58893;" d="M832 896 192 896C85.952 896 0 810.048 0 704l0-640c0-106.048 85.952-192 192-192l120 0c0 114.944 0 235.776 0 250.368 22.08 59.584 42.624 163.008 11.392 206.72C266.432 346.304 201.088 423.808 201.152 532.48c0 107.776 58.304 206.912 161.92 208.576 0 0 0 0.064 0 0.064 0.512 0 2.24 0 2.688 0L365.76 741.12c103.552-1.664 161.92-100.864 161.92-208.576-0.064-108.672-65.344-186.24-122.304-203.456-31.168-43.712-10.624-147.136 11.392-206.72 0-14.528 0-135.424 0-250.368l235.968 0c0 113.792 0 233.856-0.064 248.192 0 25.28 63.104 131.776-29.376 236.16C595.264 378.88 577.28 413.504 577.28 452.224c0 3.584 0.768 13.056 0.768 13.056L609.28 716.224l25.664 0L625.472 419.456l33.152 0 0.064 296.64 27.2 0.064 0-296.704 28.032 0L713.92 716.16l24.704 0.064 0-294.848 33.792-0.064L764.16 716.16l28.16-0.064 30.528-264.576c0 0 0.064-5.632-0.064-7.936-2.176-31.936-16.512-60.352-38.272-80.96-0.128-0.192-0.32-0.448-0.384-0.576-89.152-91.008-35.84-213.504-35.776-242.816 0-16.576 0-134.976 0-247.36L832-128.128c106.048 0 192 85.952 192 192L1024 704C1024 810.048 938.048 896 832 896zM268.352 614.08c0.32 7.68 0.96 12.288 0.96 12.288S266.304 622.912 262.656 615.68C258.88 608.512 254.4 598.016 250.432 585.024 246.4 572.032 242.816 556.48 240.896 539.456 238.848 522.368 238.272 503.872 241.856 484.48c1.984-10.112 4.864-18.624 8.32-27.456 3.648-8.448 7.552-16.448 11.712-24 8.576-14.912 17.664-27.904 26.432-38.4C296.96 384.128 305.216 376.128 311.68 371.136c6.336-5.184 11.2-6.272 11.136-5.888C322.624 364.992 319.296 367.936 315.712 374.72 311.872 381.376 307.008 391.232 301.568 403.008 296.128 414.912 289.856 428.736 284.032 443.584 280.96 451.008 278.144 458.688 275.776 466.496 273.216 473.92 270.656 482.24 269.76 489.6 264.896 520.96 267.008 556.224 267.328 582.208 267.712 595.392 268.096 606.4 268.352 614.08z"  horiz-adv-x="1024" />

    
    <glyph glyph-name="weixin" unicode="&#58906;" d="M511.9975 804.175c235.8 0 428.7375-192.925 428.7375-428.725 0-235.8125-192.9375-428.75-428.7375-428.75s-428.7375 192.9375-428.7375 428.75C83.2625 611.25 274.25 804.175 511.9975 804.175M511.9975 843.15c-259.1875 0-467.7125-208.525-467.7125-467.7 0-259.2125 208.525-467.7125 467.7125-467.7125 259.2 0 467.7125 208.5 467.7125 467.7125C979.71 634.625 769.235 843.15 511.9975 843.15L511.9975 843.15zM436.8125 649.875c-123.825 0-224.175-83.95-224.175-187.5 0-60.7 34.475-114.675 87.9875-148.925 0.6875-0.4375 2.0625-1.2875 2.0625-1.2875l-21.675-67.8625 81.0375 41.2875c0 0 2.5375-0.75 3.8125-1.1125 22.3-6.2 46.1375-9.5625 70.95-9.5625 5.0375 0 10.0625 0.2 15.05 0.475-4.6 14.25-7.125 29.2375-7.125 44.7375 0 94.5 91.45 171.15 204.1875 171.15 3.2 0 6.325-0.0625 9.45-0.2125C641.8475 581 548.9225 649.875 436.8125 649.875zM358.7875 496.475c-17.4 0-31.475 13.6625-31.475 30.475 0 16.85 14.075 30.475 31.475 30.475 17.4 0 31.5-13.625 31.5-30.475C390.2875 510.1375 376.1875 496.475 358.7875 496.475zM514.7975 496.475c-17.4 0-31.4625 13.6625-31.4625 30.475 0 16.85 14.0625 30.475 31.4625 30.475 17.3875 0 31.475-13.625 31.475-30.475C546.2725 510.1375 532.185 496.475 514.7975 496.475zM839.985 319.015c0 87.45-84.7875 158.3625-189.35 158.3625-104.6 0-189.4125-70.9125-189.4125-158.3625 0-87.475 84.8125-158.4 189.4125-158.4 20.95 0 41.0625 2.8375 59.8875 8.1125 1.1 0.2875 3.225 0.925 3.225 0.925l68.45-34.9-18.2875 57.3375c0 0 1.175 0.725 1.7375 1.0875C810.81 222.115 839.985 267.7025 839.985 319.015zM584.7225 347.79c-14.7 0-26.5875 11.5375-26.5875 25.7625 0 14.2 11.8875 25.725 26.5875 25.725s26.6125-11.525 26.6125-25.725C611.335 359.3275 599.4225 347.79 584.7225 347.79zM716.485 347.79c-14.675 0-26.5625 11.5375-26.5625 25.7625 0 14.2 11.8875 25.725 26.5625 25.725 14.725 0 26.6125-11.525 26.6125-25.725C743.0975 359.3275 731.21 347.79 716.485 347.79z"  horiz-adv-x="1024" />

    
    <glyph glyph-name="renzheng" unicode="&#58930;" d="M511.89 767.255c-201.858 0-365.49-163.641-365.49-365.49 0-201.848 163.632-365.489 365.49-365.489s365.489 163.641 365.489 365.489c0 201.849-163.631 365.49-365.489 365.49zM632.031 368.018c-19.809-27.474-47.043-60.48-70.814-79.976-17.23-14.117-49.077-35.997-74.168-31.99-64.639 10.315-50.88 161.124-94.415 195.138-19.907 5.497-29.508-23.575-40.448-6.389-17.204 13.635 16.57 37.459 33.711 51.183 21.183 16.954 46.169 41.117 74.168 30.614 54.537-20.46 15.446-144.411 67.441-171.376 26.867 20.532 56.983 54.475 50.576 95.968-5.095 13.848-29.714 9.449-43.83 6.398-0.732 63.291 130.75 111.806 141.61 25.583 5.897-52.771-43.83-115.153-43.83-115.153z"  horiz-adv-x="1024" />

    
    <glyph glyph-name="paobu" unicode="&#58933;" d="M922.143 384.13c-26.291 0-84.674 0-196.313 0-43.782 0-17.277 103.939-52.313 137.607l-107.442-185.038 159.755-150.162-168.268-282.276c0 0-57.83 38.692-56.09 56.453 3.859 39.411 89.362 149.077 113.018 193.082-53.463 50.264-126.727 119.141-134.676 126.615l-11.75 6.913-106.816-129.016-252.402 0-28.045 28.229 0 28.228 28.045 28.225 196.312 0 0-1.19 76.777 114.287 0.44-0.105 149.199 256.952c-61.918 30.68-96.655 27.424-124.754-2.985-104.678-113.286-115.685-56.455-129.707-56.455s-12.269 37.049 0 56.455c12.269 19.406 96.186 174.142 308.492 84.683 201.109-84.742 152.976-224.057 196.313-225.821 86.796-8.872 113.933-17.643 140.224-28.229 26.292-10.585 29.798-35.284 0-56.454zM739.852 666.407c-54.21 0-98.156 44.233-98.156 98.798s43.946 98.796 98.156 98.796c54.21 0 98.157-44.232 98.157-98.796s-43.946-98.798-98.157-98.798z"  horiz-adv-x="1024" />

    
    <glyph glyph-name="shuiguo" unicode="&#58963;" d="M563.898401 463.111947l0.842897 0.481656L563.898401 463.111947 563.898401 463.111947zM563.898401 463.111947M1050.129821 347.514581c-16.737535 50.814675-55.269991 88.504233-31.668862 136.790216 8.790216 17.821261-14.810913 35.160865-14.810913 35.160865-4.094073 0.481656-19.266228 38.291627-28.056444 51.416745-9.151458 13.365945-9.873942 25.046096-17.219191 13.606773-21.313264-33.113829-137.151458-115.958608-257.806209-60.206961-120.534337 55.751646-155.213547 137.633114-181.222954 170.144873-25.888993 32.511759-49.851364 46.841016-58.159925 40.699906-8.188147-6.14111-20.711195-6.020696-21.19285-14.329257 0 0-34.438382-103.315146 33.715898-193.38476 68.274694-89.9492 162.558796-150.39699 263.224835-151.480715 8.549389-0.120414 16.737535 0.120414 24.56444 0.481656-24.444026-6.381938-51.296331-9.5127-80.4365-7.706491-160.632173 9.5127-237.095014 82.363123-281.16651 106.325494-43.951082 23.962371-77.426152 29.260583-83.80809 19.266228-6.381938-9.994356-20.470367-14.931326-17.219191-23.962371 0 0 8.91063-124.146754 126.675447-191.939793 117.764817-67.552211 251.183443-92.959548 364.372531-52.50047 37.930386 13.606773 67.913452 29.140169 91.15334 45.757291-17.700847-20.229539-40.097836-37.44873-69.238006-49.490122-147.507056-61.049859-247.209784-29.019755-296.940734-26.611477-49.610536 2.408278-81.761054-7.345249-83.206021-19.0254-1.444967-11.680151-11.800564-22.276576-4.936971-28.899341 0 0 61.772342-107.168391 196.15428-116.801505 134.381938-9.392286 264.428975 25.648166 347.996237 110.780809C1054.70555 226.980245 1066.98777 296.82032 1050.129821 347.514581L1050.129821 347.514581zM1050.129821 347.514581"  horiz-adv-x="1356" />

    
    <glyph glyph-name="yinliao" unicode="&#59044;" d="M814.873774 697.869695 538.097233 697.869695l30.711057 95.548451 187.672803 0c14.6577 0 26.541726 11.884026 26.541726 26.541726S771.138794 846.501599 756.481094 846.501599l-207.020174 0c-11.529049 0-21.73961-7.443501-25.267335-18.419138l-41.852056-130.210561L217.166795 697.871899c-38.050932 0-69.006725-30.955793-69.006725-69.006725l0-81.746224c0-35.255209 26.581413-64.400838 60.751847-68.495204l32.272076-485.942013c-0.057326-41.450777 51.317385-71.182891 103.591666-71.182891l347.767611 0c51.531253 0 99.382648 29.859993 99.382648 72.929115l22.775879 429.425642c0.097012 0.917209 0.147724 1.845442 0.147724 2.786903 0 14.560688-11.802447 26.363135-26.363135 26.363135-14.560688 0-26.363135-11.802447-26.363135-26.363135L739.256973-3.828023c-0.057326-9.121376-20.612942-21.946864-46.711498-21.946864l-347.767611 0c-14.121927 0-28.94058 3.869474-39.706758 10.10032-8.014552 4.638959-11.213758 8.810495-11.213758 10.10032l-32.069232 483.682064 553.085658 0c38.050932 0 69.006725 30.955793 69.006725 69.006725L883.880498 628.86297C883.880498 666.913901 852.9225 697.869695 814.873774 697.869695zM830.797046 547.116746c0-8.781832-7.143645-15.925477-15.925477-15.925477L217.166795 531.191269c-8.781832 0-15.925477 7.143645-15.925477 15.925477L201.241318 628.86297c0 8.781832 7.143645 15.925477 15.925477 15.925477l284.336898 0c0.061735 0 0.125675-0.006614 0.18741-0.006614 0.061735 0 0.121266 0.006614 0.183001 0.006614l312.99526 0c8.781832 0 15.925477-7.143645 15.925477-15.925477L830.797046 547.116746 830.797046 547.116746zM683.053688 78.224672l-202.493661 172.424209c-11.160842 9.502811-27.91313 8.157866-37.413736-3.000772-9.502811-11.160842-8.160071-27.910925 3.000772-37.413736l202.493661-172.424209c4.996142-4.253114 11.110131-6.334472 17.193253-6.334472 7.507441 0 14.970786 3.170543 20.220483 9.335244C695.55727 51.971778 694.212325 68.721861 683.053688 78.224672zM683.232279 267.074854l-101.247933 87.183331c-11.110131 9.566751-27.866828 8.314409-37.431375-2.793518-9.564546-11.107926-8.314409-27.864624 2.793518-37.431375l101.247933-87.183331c5.011575-4.31485 11.171866-6.42928 17.305699-6.42928 7.458935 0 14.875978 3.126447 20.12347 9.222798C695.590343 240.751406 694.340205 257.510308 683.232279 267.074854z"  horiz-adv-x="1024" />

    
    <glyph glyph-name="jin" unicode="&#59816;" d="M880.415302 832.039269 142.996297 832.039269c-43.645033 0-79.008448-35.363416-79.008448-79.008448l0-737.432309c0-43.61945 35.363416-79.008448 79.008448-79.008448L880.415302-63.409936c43.645033 0 79.008448 35.388998 79.008448 79.008448L959.423751 753.030821C959.423751 796.675854 924.061358 832.039269 880.415302 832.039269zM224.346069 564.251294l0 38.269605 119.131261 0 0 68.51649 41.973974 0 0-68.51649 106.786095 0 0-38.269605L385.451304 564.251294l0-45.677319 14.814404 22.838148c36.624129-18.929118 64.812121-35.388998 84.565001-49.380664l-22.221094-32.715099c-19.75288 15.637142-45.472658 32.098046-77.157287 49.381687l0-105.550964-41.973974 0L343.478354 528.450926c-30.040177-44.443212-67.692728-84.565001-112.958678-120.365368-9.875928 10.69969-21.398356 21.398356-34.56626 32.097022 53.084009 32.098046 99.172697 73.453942 138.266064 124.068713L224.346069 564.251294zM740.374826 384.013303l0-43.209104L281.133424 340.804199l0 43.209104L740.374826 384.013303zM208.914612 127.219729c52.673663 25.924439 105.34528 58.022485 158.01792 96.293113l31.480992-37.035498c-50.615794-34.56626-105.139595-67.281359-163.573449-98.144274C227.432361 100.678236 218.791563 113.640456 208.914612 127.219729zM761.978866 91.419362c-49.792033 30.039153-104.315834 60.903092-163.573449 92.587722l24.072255 37.653575c55.553247-26.748201 111.312178-54.937217 167.276794-84.565001L761.978866 91.419362zM807.038108 241.412514 542.235117 241.412514l0-93.205798c0-51.02614-23.456225-76.540234-70.367651-76.540234-25.101701 0-51.849902 0.411369-80.243579 1.234107-1.645476 15.637142-4.114714 32.715099-7.40669 51.232848 30.861892-3.292999 55.758931-4.938476 74.68805-4.938476 23.044856 0 34.56626 11.728112 34.56626 35.184337l0 87.033215L210.766796 241.412514l0 43.221384 596.271312 0L807.038108 241.412514zM787.286252 413.641087c-50.204425 29.628808-93.411483 68.926836-129.624243 117.897154l0-127.773082-41.973974 0L615.688036 531.538241c-32.098046-44.443212-70.574359-84.565001-115.427916-120.365368-10.288321 11.522428-21.398356 22.838148-33.332153 33.949206 53.907771 32.920784 100.202143 72.631204 138.884141 119.130238l-90.119507 0 0 38.269605 99.996458 0 0 68.51649 41.973974 0 0-68.51649 134.561695 0 0-38.269605L665.685753 564.252317c44.443212-50.614771 95.059006-87.2389 151.84636-109.871363C806.009685 439.977919 795.928073 426.398646 787.286252 413.641087z"  horiz-adv-x="1024" />

    
    <glyph glyph-name="nan1" unicode="&#58980;" d="M434.537424 553.404617c-138.75727 0-251.523134-111.435595-251.523134-248.555611 0-137.017688 112.868192-248.453283 251.523134-248.453283 138.654942 0 251.625462 111.537923 251.625462 248.453283C686.060558 441.969022 573.192365 553.404617 434.537424 553.404617L434.537424 553.404617zM957.230738 490.370341 838.120516 490.370341 838.120516 623.806535l-104.579594-103.351654c44.819826-60.476067 71.629859-134.868792 71.629859-215.503548 0-201.893874-166.181273-366.130908-370.633357-366.130908-204.349755 0-370.633357 164.237034-370.633357 366.130908 0 201.893874 166.283601 366.233237 370.633357 366.233237 79.918457 0 153.697212-25.377436 214.275607-67.946038l112.663536 111.333267L609.825922 714.5718l0 117.677626 347.404817 0L957.230738 490.370341 957.230738 490.370341 957.230738 490.370341z"  horiz-adv-x="1024" />

    
    <glyph glyph-name="yingyu" unicode="&#58967;" d="M904.123772 462.278831c0 173.630503-140.755768 314.38627-314.38627 314.38627L433.634188 776.665101c-173.630503 0-314.38627-140.755768-314.38627-314.38627l0-156.104337c0-173.630503 140.755768-314.38627 314.38627-314.38627l156.104337 0c173.630503 0 314.38627 140.755768 314.38627 314.38627L904.124795 462.278831zM458.985576 268.08192l-148.379399 0 0 254.803243 148.379399 0 0-42.97886-106.423845 0 0-63.444984 106.423845 0 0-41.955554-106.423845 0 0-65.491597 106.423845 0L458.985576 268.08192zM692.299389 268.08192l-42.97886 0L649.320529 365.811756c0 25.075095-8.685823 46.292326-39.899732 46.292326-22.5199 0-45.034682-15.112186-45.034682-43.400462l0-100.621698-42.97886 0L521.407254 389.27719c0 19.608593 21.952988 47.64923 21.165042 70.161966l39.903825 0 2.367931-42.97886 1.186012 0c10.275018 20.466124 17.377786 28.360931 50.172703 28.360931 33.975812 0 56.095599-19.863397 56.095599-74.508971L692.298366 268.08192z"  horiz-adv-x="1024" />

    
    <glyph glyph-name="tingli" unicode="&#58925;" d="M528.9086 763.162576l-33.447786 0c-201.447035 0-364.713492-160.548556-364.713492-358.584911l0-186.773847 66.862827 0L197.610148 395.955286c0 163.320693 134.694725 295.725258 300.791647 295.725258l27.565822 0c166.095899 0 300.790624-132.404566 300.790624-295.725258l0-178.150446 66.86385 0 0 186.773847C893.623116 602.61402 730.319819 763.162576 528.9086 763.162576zM232.550938 114.719021l132.23572 0L364.786659 380.662998 232.550938 380.662998 232.550938 114.719021zM656.527163 114.719021l132.23572 0L788.762883 380.662998 656.527163 380.662998 656.527163 114.719021z"  horiz-adv-x="1024" />

    
    <glyph glyph-name="shuimian" unicode="&#58884;" d="M663.2 512.5l105.3 56.1 105.3-56.1-20.1 118.8 85.2 84.2-117.7 17.3L768.4 841l-52.6-108.1-117.7-17.3 85.2-84.2L663.2 512.5zM739.9 198.3c-219.6 0-397.6 179.1-397.6 399.9 0 78.1 22.6 150.7 61 212.2C213.2 758.8 73.1 584.4 73.1 376.7c0-248.4 200.1-449.8 446.9-449.8 206.6 0 379.9 141.3 431.1 333C889.9 221.1 817.6 198.3 739.9 198.3z"  horiz-adv-x="1024" />

    
    <glyph glyph-name="ps" unicode="&#59065;" d="M774.4 896 256 896c-140.8 0-256-115.2-256-256l0-512c0-140.8 115.2-256 256-256l518.4 0c140.8 0 249.6 115.2 249.6 256L1024 640C1024 780.8 915.2 896 774.4 896zM774.4 768c70.4 0 128-57.6 128-128l0-512c0-70.4-57.6-128-128-128L256 0c-70.4 0-128 57.6-128 128L128 640c0 70.4 57.6 128 128 128L774.4 768M300.8 531.2 300.8 531.2l0-153.6 12.8 0 32 0c25.6 0 51.2 6.4 70.4 19.2 19.2 12.8 25.6 32 32 64 0 25.6-6.4 44.8-25.6 57.6-12.8 12.8-38.4 19.2-70.4 19.2C326.4 531.2 307.2 531.2 300.8 531.2L300.8 531.2zM198.4 153.6 198.4 614.4c0 6.4 0 6.4 6.4 6.4l64 0c25.6 0 57.6 0 83.2 0 51.2 0 89.6-12.8 121.6-32 32-12.8 51.2-32 64-57.6s19.2-51.2 19.2-76.8c0-38.4-12.8-70.4-32-96C505.6 339.2 480 320 448 307.2s-64-19.2-102.4-19.2l-44.8 0 0-134.4c0-6.4 0-6.4-6.4-6.4L198.4 153.6C198.4 147.2 192 147.2 198.4 153.6L198.4 153.6zM819.2 384 819.2 384c-12.8 6.4-32 12.8-51.2 19.2-19.2 6.4-38.4 6.4-57.6 6.4-12.8 0-25.6 0-32-6.4s-6.4-6.4-6.4-12.8 0-12.8 6.4-12.8 25.6-12.8 51.2-19.2c38.4-12.8 70.4-25.6 89.6-44.8 19.2-19.2 25.6-38.4 25.6-64 0-38.4-12.8-64-38.4-83.2C787.2 140.8 748.8 128 704 128c-19.2 0-38.4 0-57.6 6.4-19.2 6.4-38.4 12.8-57.6 19.2-6.4 0-6.4 6.4-6.4 6.4L582.4 243.2c0 6.4 0 6.4 6.4 6.4 19.2-12.8 44.8-25.6 64-32s44.8-12.8 64-12.8c12.8 0 25.6 0 32 6.4s6.4 12.8 6.4 12.8c0 6.4-6.4 12.8-12.8 19.2-6.4 6.4-25.6 12.8-51.2 19.2-38.4 12.8-70.4 32-83.2 44.8-12.8 19.2-25.6 38.4-25.6 64 0 32 12.8 57.6 38.4 76.8 25.6 19.2 57.6 32 108.8 32 44.8 0 76.8-6.4 102.4-19.2 6.4 0 6.4-6.4 6.4-12.8L819.2 384C825.6 384 825.6 384 819.2 384L819.2 384z"  horiz-adv-x="1024" />

    
    <glyph glyph-name="iconfontshenqingdaren" unicode="&#58943;" d="M944.315 506.464v131.936l-114.523 66.134-65.809 114.195h-131.94l-114.509 66.127-114.198-66.127h-131.936l-66.134-114.195-114.516-66.13v-131.936l-65.806-114.198 66.127-114.198v-131.932l114.52-65.805 66.13-114.516h131.936l114.198-65.813 114.513 65.813h131.614l65.809 114.516 114.524 65.805v131.932l65.802 114.198-65.802 114.195zM219.546 489.969h195.346l-34.214-120.965-161.132 120.965zM533.993 258.086l106.345 74.356 47.483-179.65-153.828 105.294zM666.189 377.855l-0.014 0.011-182.384-130.263-147.17-94.814 60.076 189.432 0.238-0.072 1.73 6.286 1.806 5.697-0.199 0.148 43.39 157.415-0.137 0.036 74.020 170.908 83.416-192.676h214.554l-149.327-112.108z"  horiz-adv-x="1024" />

    
    <glyph glyph-name="weibo1" unicode="&#58956;" d="M544.060-63.267h-64.949c-228.634 0-415.697 187.064-415.697 415.697v64.949c0 228.634 187.064 415.697 415.697 415.697h64.949c228.634 0 415.697-187.064 415.697-415.697v-64.949c-0.001-228.634-187.065-415.697-415.697-415.697zM466.546 207.214c-91.162-9.191-169.926 32.733-175.862 93.516-5.911 60.858 63.237 117.533 154.373 126.724 91.212 9.191 169.951-32.733 175.811-93.516 6.010-60.858-63.161-117.609-154.273-126.724M648.919 409.147c-7.764 2.404-13.099 3.932-9.067 14.275 8.816 22.49 9.767 41.874 0.151 55.774-17.857 25.946-66.793 24.544-122.893 0.701 0 0-17.656-7.814-13.099 6.336 8.59 28.175 7.262 51.716-6.086 65.366-30.404 31.005-111.348-1.127-180.72-71.627-51.892-52.743-82.071-108.767-82.071-157.153 0-92.514 116.807-148.814 231.059-148.814 149.766 0 249.442 88.406 249.442 158.606 0.075 42.45-35.112 66.543-66.743 76.511M748.396 578.496c-34.566 39.257-87.675 56.726-138.796 45.656-11.451-2.604-18.669-13.944-16.178-25.42 2.273-11.394 13.351-18.788 24.746-16.516 0.099 0.019 0.2 0.041 0.299 0.061 35.012 7.588 72.929-3.456 98.625-32.433 24.863-28.122 33.093-67.253 21.663-103.008-3.606-11.27 2.504-23.291 13.574-26.948 11.057-3.567 22.913 2.505 26.48 13.562 0.023 0.071 0.045 0.141 0.067 0.212v0.050c16.073 50.255 4.482 105.261-30.504 144.757M692.847 527.531c-16.829 19.108-42.693 27.592-67.569 22.164-9.89-2.243-16.14-12.020-14.025-21.939 2.154-9.917 11.821-16.279 21.538-14.1 11.696 2.555 24.469-1.152 33.058-10.819 8.59-9.718 10.944-22.916 7.262-34.511-3.082-9.632 2.104-19.961 11.67-23.241 9.533-3.067 19.747 2.175 22.814 11.708 0.017 0.054 0.035 0.109 0.051 0.163 7.513 23.717 2.83 50.74-14.776 70.575M471.556 317.358c-3.156-5.585-10.218-8.215-15.703-5.885-5.459 2.254-7.138 8.515-4.007 13.899 3.18 5.385 9.943 8.014 15.328 5.861 5.51-2.004 7.463-8.265 4.408-13.899M442.528 279.466c-8.84-14.275-27.8-20.536-41.974-13.975-14.025 6.512-18.182 23.091-9.367 37.066 8.765 13.899 26.998 20.086 41.123 14.025 14.275-6.261 18.858-22.665 10.193-37.116M475.612 380.646c-43.401 11.521-92.414-10.518-111.272-49.337-19.284-39.645-0.627-83.648 43.152-98.024 45.455-14.902 98.926 7.964 117.583 50.665 18.383 41.824-4.558 84.901-49.487 96.671z"  horiz-adv-x="1024" />

    
    <glyph glyph-name="qq1" unicode="&#58954;" d="M544.059897-63.266898h-64.949141c-228.633593 0-415.697442 187.063849-415.697442 415.697442v64.949141c0 228.633593 187.063849 415.697442 415.697442 415.697442h64.949141c228.633593 0 415.697442-187.063849 415.697442-415.697442v-64.949141c-0.001024-228.633593-187.064873-415.697442-415.697442-415.697442zM729.459932 268.69925c-3.156638 39.628458-24.044923 83.747676-32.624058 105.910698l-22.084182 57.046794c-0.701361 23.73059 6.312253 78.322108-30.510759 146.611164s-110.820228 74.444654-124.497288 75.146016c-13.67706 0.701361-99.247252 1.402723-141.330987-72.944663-42.083735-74.347385-30.744205-148.812517-30.744205-148.812517l-23.523765-57.47785c-0.001024-0.002048-10.961716-26.222727-20.429584-58.135185-9.468891-31.913482-18.937783-82.063385-9.468892-92.233638 9.468891-10.170253 43.836626 46.643096 46.993265 51.902795 0 0 2.455277-27.179036 8.942615-41.382373l0.809893-1.776441 0.330715-0.722863 0.378837-0.826276 0.299999-0.652215 0.444366-0.960404 0.202729-0.435151a281.465052 281.465052 0 0 1 1.917738-4.024893l0.188394-0.386005c0.231398-0.473035 0.467916-0.953237 0.711601-1.442655l0.145391-0.291807c6.886653-13.807094 18.611164-33.823028 37.443487-50.420209l0.017406-0.015358-1.183612-0.387029c-10.666837-3.516022-31.69437-11.209497-40.624698-19.819348-1.717056-1.655623-2.987697-3.345033-3.650151-5.045707-5.376422-13.793783 4.208169-15.430976 20.574976-16.365783 16.365783-0.934807 94.922361-3.039916 132.563457 2.220807 0.407506 0.056314 0.787368 0.113651 1.171325 0.170989 2.710224-0.094197 5.32318-0.14232 7.828627-0.16075l0.151535-0.001024c0.83549-0.005119 1.66279-0.008191 2.474731-0.008191 0.496584 0 1.01467 0.002048 1.541971 0.006144l0.209896 0.001023a222.59267 222.59267 0 0 1 5.462429 0.106484c0.260067-0.037884 0.507847-0.075768 0.778152-0.113651 37.64212-5.260723 116.197674-3.156638 132.563457-2.220807 16.365783 0.934807 25.951397 2.572 20.573952 16.365783-4.301342 11.03646-34.17422 21.619339-45.956069 25.412834a141.388325 141.388325 0 0 1 7.958661 7.645351l0.236517 0.244709a142.494121 142.494121 0 0 1 2.531045 2.702033c42.433903 46.643096 38.927096 76.101301 40.681011 92.935 0 0 35.775577-51.552626 43.488506-53.306542 7.712928-1.753916 10.168205 6.311229 7.011566 45.940711z"  horiz-adv-x="1024" />

    
    <glyph glyph-name="meirong" unicode="&#59003;" d="M636.416 637.952c7.168 9.216 7.68 22.528 1.024 32.256-4.096 5.632-98.304 139.264-275.456 139.264-177.664 0-268.288-135.68-271.872-141.824-6.656-9.728-5.632-23.04 2.048-32.256l187.904-221.184c1.024-1.024 2.56-2.048 3.584-3.072l-44.544-399.36c-2.048-9.728-1.024-24.576 9.216-37.376 12.288-15.36 33.792-23.552 64.512-23.552h120.32c31.744 0 66.56 16.896 66.56 53.248 0 24.576-33.792 317.952-44.544 408.576 0.512 0.512 1.536 1.024 1.536 1.536l179.712 223.744z m-325.632-176.64l-23.552 97.792c-3.584 14.336 5.632 28.672 19.968 32.256 14.336 3.584 28.672-5.12 32.256-19.968l26.624-111.104-55.296 1.024z m16.384-146.432l6.144 53.76h73.728l6.144-53.76h-86.016z m114.688 246.272l-18.432-99.84H368.64l19.968 109.568c2.56 14.336 16.896 24.064 31.232 21.504 14.848-2.56 24.576-16.896 22.016-31.232zM906.752 463.872H896v287.232c0 50.688-25.088 58.368-40.448 58.368-19.968 0-37.376-14.336-61.952-33.792-12.288-9.728-25.6-20.48-39.936-29.696-43.008-27.136-56.832-67.584-57.856-88.576v-193.024h-17.92c-20.48 0-36.864-16.896-36.864-37.376v-437.76c0-20.48 16.384-37.376 36.864-37.376h229.376c20.48 0 36.864 16.896 36.864 37.376v437.76c0 19.968-16.896 36.864-37.376 36.864z m-48.64-372.224c0-14.848-11.776-26.624-26.624-26.624-14.848 0-26.624 11.776-26.624 26.624v242.688c0 14.848 11.776 26.624 26.624 26.624 14.848 0 26.624-11.776 26.624-26.624v-242.688z"  horiz-adv-x="1024" />

    
    <glyph glyph-name="nv1" unicode="&#58948;" d="M855.729627 737.533959c-59.396769 58.262443-137.925351 90.355916-221.106837 90.355916-85.486263 0-165.539321-33.6035-225.39849-94.618669-59.049968-60.191519-91.143442-139.803852-90.334241-224.134114 0.6358-67.127524 22.115741-130.808721 61.188569-183.804135l-73.601129-74.995555-153.177337 150.287335a50.575037 50.575037 0 1 1-70.833952-72.199478l153.177338-150.287335-104.242377-106.250928a50.582262 50.582262 0 0 1 72.206703-70.841176l104.242376 106.243702 153.177338-150.287335a50.387187 50.387187 0 0 1 35.416976-14.471685 50.575037 50.575037 0 0 1 35.416976 86.678388l-153.177338 150.28011 73.514429 74.94498c53.002639-37.642278 116.192535-58.024017 182.388034-58.024017 85.486263 0 165.539321 33.596275 225.39849 94.618669 59.057193 60.198744 91.143442 139.803852 90.341466 224.134114-0.794751 84.337487-34.39825 163.306795-94.596994 222.371213z m-67.94395-375.66415c-40.684005-41.47153-95.08107-64.302547-153.191787-64.302547-56.542891 0-109.914006 21.805066-150.272885 61.41977-40.92243 40.134904-63.753447 93.802244-64.288097 151.125435-0.5491 57.323192 21.248741 111.416807 61.398095 152.332012 40.684005 41.47153 95.08107 64.302547 153.191787 64.302547 56.528441 0 109.899555-21.812291 150.272885-61.41977 40.90798-40.134904 63.738997-93.809469 64.288097-151.125436 0.5491-57.323192-21.248741-111.416807-61.398095-152.332011z"  horiz-adv-x="1024" />

    
    <glyph glyph-name="weixin1" unicode="&#59195;" d="M352.814545 510.603636m-33.512727 0a33.512727 33.512727 0 1 1 67.025455 0 33.512727 33.512727 0 1 1-67.025455 0ZM502.690909 511.534545m-33.512727 0a33.512727 33.512727 0 1 1 67.025454 0 33.512727 33.512727 0 1 1-67.025454 0ZM576.232727 361.658182m-23.272727 0a23.272727 23.272727 0 1 1 46.545455 0 23.272727 23.272727 0 1 1-46.545455 0ZM694.458182 359.796364m-23.272727 0a23.272727 23.272727 0 1 1 46.545454 0 23.272727 23.272727 0 1 1-46.545454 0ZM512 896C229.003636 896 0 666.996364 0 384s229.003636-512 512-512 512 229.003636 512 512S794.996364 896 512 896z m-87.505455-630.225455c-26.996364 0-48.407273 5.585455-75.403636 11.17091l-75.403636-37.236364 21.410909 64.232727c-53.992727 37.236364-85.643636 85.643636-85.643637 145.221818 0 102.4 96.814545 182.458182 215.04 182.458182 105.192727 0 198.283636-64.232727 216.901819-150.807273-6.516364 0.930909-13.963636 0.930909-20.48 0.93091-102.4 0-182.458182-76.334545-182.458182-170.356364 0-15.825455 2.792727-30.72 6.516363-44.683636-7.447273 0-13.963636-0.930909-20.48-0.93091z m314.647273-75.403636l15.825455-53.992727-58.647273 32.581818c-21.410909-5.585455-42.821818-11.170909-64.232727-11.170909-102.4 0-182.458182 69.818182-182.458182 155.461818s80.058182 155.461818 182.458182 155.461818c96.814545 0 182.458182-69.818182 182.458182-155.461818 0-47.476364-31.650909-90.298182-75.403637-122.88z"  horiz-adv-x="1024" />

    
    <glyph glyph-name="NO1" unicode="&#58944;" d="M315.334 417.348l-189.569-346.79 165.438 23.916 69.17-152.162 189.574 346.791zM719.193 417.348l189.57-346.79-165.439 23.916-69.171-152.162L484.58 289.10299999999995zM517.264 825.2429999999999c9.442 0 18.008-18.436 27.248-19.231 9.386-0.813 20.993 15.86 30.134 14.252 9.274-1.616 14.521-21.262 23.501-23.656 9.084-2.429 23.423 11.962 32.16 8.781 8.834-3.207 10.554-23.458 18.998-27.407 8.496-3.967 25.134 7.701 33.207 3.034 8.116-4.693 6.283-24.944 13.933-30.303 7.658-5.376 26.076 3.232 33.225-2.775 7.165-6.024 1.866-25.644 8.479-32.256 6.604-6.604 26.224-1.305 32.247-8.47 6.008-7.157-2.602-25.566 2.774-33.233 5.359-7.641 25.61-5.817 30.304-13.924 4.667-8.073-7.01-24.711-3.043-33.207 3.95-8.444 24.209-10.165 27.416-18.989 3.189-8.738-11.219-23.085-8.781-32.169 2.395-8.98 22.031-14.218 23.656-23.492 1.599-9.145-15.074-20.752-14.262-30.139 0.796-9.239 19.231-17.805 19.231-27.243 0-9.438-18.436-18.012-19.231-27.243-0.813-9.387 15.86-20.994 14.253-30.139-1.616-9.274-21.262-14.512-23.656-23.492-2.429-9.084 11.962-23.432 8.781-32.17-3.206-8.824-23.466-10.553-27.416-18.998-3.958-8.496 7.71-25.133 3.043-33.205-4.693-8.107-24.944-6.283-30.312-13.924-5.367-7.668 3.232-26.078-2.766-33.225-6.016-7.166-25.645-1.867-32.257-8.479-6.611-6.613-1.305-26.232-8.479-32.248-7.148-6.008-25.558 2.592-33.225-2.775-7.641-5.367-5.816-25.617-13.924-30.303-8.081-4.666-24.711 7.002-33.207 3.035-8.444-3.941-10.164-24.201-18.989-27.408-8.737-3.18-23.085 11.211-32.174 8.791-8.976-2.404-14.213-22.041-23.487-23.674-9.141-1.6-20.752 15.082-30.139 14.27-9.235-0.795-17.805-19.23-27.243-19.23-9.442 0-18.008 18.436-27.248 19.23-9.386 0.813-20.994-15.861-30.134-14.262-9.274 1.625-14.517 21.262-23.496 23.666-9.079 2.42-23.427-11.971-32.175-8.791-8.82 3.215-10.544 23.467-18.988 27.408-8.492 3.967-25.135-7.701-33.207-3.035-8.111 4.693-6.283 24.945-13.928 30.313-7.662 5.367-26.076-3.232-33.229 2.773-7.166 6.016-1.863 25.637-8.475 32.248-6.608 6.611-26.229 1.314-32.252 8.471-6.003 7.156 2.602 25.566-2.771 33.232-5.363 7.648-25.614 5.826-30.308 13.934-4.662 8.072 7.01 24.709 3.043 33.205-3.945 8.436-24.201 10.164-27.412 18.99-3.18 8.738 11.215 23.086 8.791 32.161-2.398 8.98-22.045 14.227-23.67 23.492-1.599 9.145 15.078 20.752 14.266 30.139-0.795 9.239-19.23 17.805-19.23 27.243 0 9.447 18.436 18.013 19.23 27.252 0.813 9.386-15.864 20.994-14.266 30.139 1.629 9.265 21.271 14.512 23.67 23.492 2.424 9.075-11.971 23.423-8.786 32.169 3.211 8.825 23.466 10.545 27.411 18.989 3.968 8.497-7.705 25.134-3.037 33.207 4.692 8.116 24.943 6.284 30.307 13.924 5.376 7.667-3.229 26.076 2.774 33.233 6.016 7.165 25.64 1.867 32.252 8.479 6.612 6.604 1.31 26.224 8.475 32.248 7.151 5.999 25.562-2.602 33.228 2.766 7.646 5.367 5.822 25.618 13.93 30.311 8.076 4.667 24.71-7.009 33.206-3.042 8.44 3.95 10.165 24.201 18.989 27.416 8.738 3.181 23.086-11.219 32.166-8.79 8.979 2.394 14.217 22.04 23.491 23.665 9.14 1.599 20.753-15.074 30.139-14.261 9.237 0.795 17.806 19.23 27.245 19.23zM318.313 693.77c109.875 109.875 288.022 109.875 397.897 0 109.869-109.875 109.869-288.021 0-397.898-109.881-109.875-288.022-109.875-397.897 0-109.87 109.877-109.87 288.011 0 397.898zM509.965 601.894h-0.712l-40.229-21.717-6.053 23.854 50.555 27.057h26.701v-231.412h-30.262V601.894zM542.439 397.463h-34.687V598.569l-40.176-21.688-7.176 28.283 52.57 28.136h29.469v-235.837z m-30.262 4.425h25.836V628.875H514.08l-48.539-25.979 4.929-19.424 38.224 20.634h3.483v-202.218zM517.264 345.20399999999995l8.211-16.639 18.362-2.669-13.288-12.948 3.14-18.289-16.425 8.635-16.426-8.635 3.141 18.289-13.289 12.948 18.363 2.669zM435.024 366.14599999999996l1.759-16.456 14.56-7.882-15.109-6.76-2.99-16.283-11.102 12.281-16.41-2.186 8.25 14.356-7.147 14.928 16.197-3.407zM599.512 366.14599999999996l-1.768-16.456-14.555-7.882 15.108-6.76 2.986-16.283 11.107 12.281 16.413-2.186-8.254 14.356 7.148 14.928-16.197-3.407z"  horiz-adv-x="1024" />

    
    <glyph glyph-name="NO3" unicode="&#58945;" d="M318.601 416.65L133.288 77.64499999999998l161.722 23.377 67.62-148.747 185.318 339.006zM713.397 416.65l185.314-339.005-161.723 23.377-67.62-148.747L484.05 291.28099999999995zM515.999 815.386c9.229 0 17.603-18.02 26.634-18.802 9.177-0.792 20.527 15.509 29.459 13.935 9.067-1.584 14.195-20.782 22.976-23.127 8.881-2.366 22.898 11.693 31.439 8.588 8.635-3.137 10.313-22.93 18.572-26.796 8.302-3.877 24.571 7.535 32.461 2.97 7.931-4.586 6.144-24.388 13.616-29.631 7.488-5.252 25.493 3.168 32.481-2.709 7.003-5.878 1.823-25.066 8.29-31.527 6.452-6.462 25.634-1.282 31.522-8.275 5.872-7.004-2.543-24.993 2.709-32.486 5.243-7.483 25.034-5.69 29.626-13.611 4.561-7.9-6.853-24.169-2.976-32.476 3.861-8.244 23.669-9.922 26.801-18.552 3.116-8.546-10.97-22.574-8.582-31.454 2.339-8.775 21.538-13.893 23.122-22.96 1.563-8.942-14.732-20.292-13.94-29.463 0.776-9.036 18.802-17.405 18.802-26.629 0-9.234-18.025-17.614-18.802-26.64-0.792-9.172 15.503-20.521 13.935-29.454-1.578-9.067-20.787-14.194-23.127-22.97-2.377-8.881 11.693-22.909 8.582-31.444-3.132-8.631-22.939-10.318-26.801-18.573-3.866-8.306 7.541-24.575 2.977-32.465-4.587-7.921-24.383-6.139-29.632-13.612-5.247-7.493 3.158-25.492-2.704-32.475-5.878-7.004-25.065-1.824-31.532-8.286-6.462-6.463-1.276-25.649-8.285-31.528-6.988-5.867-24.988 2.533-32.481-2.709-7.468-5.253-5.686-25.045-13.611-29.62-7.9-4.564-24.154 6.837-32.461 2.96-8.254-3.856-9.938-23.659-18.562-26.796-8.541-3.106-22.569 10.964-31.455 8.599-8.771-2.346-13.893-21.543-22.96-23.148-8.932-1.553-20.287 14.748-29.459 13.956-9.031-0.782-17.405-18.802-26.634-18.802s-17.603 18.02-26.634 18.802c-9.176 0.792-20.527-15.509-29.458-13.945-9.067 1.595-14.189 20.792-22.971 23.138-8.875 2.365-22.903-11.705-31.449-8.599-8.625 3.147-10.308 22.939-18.567 26.796-8.301 3.877-24.57-7.524-32.46-2.96-7.932 4.586-6.144 24.378-13.617 29.631-7.488 5.241-25.488-3.169-32.481 2.709-7.004 5.879-1.819 25.055-8.286 31.527-6.457 6.462-25.639 1.283-31.528 8.276-5.868 6.993 2.543 24.992-2.709 32.485-5.242 7.483-25.035 5.701-29.625 13.622-4.56 7.891 6.853 24.159 2.976 32.465-3.856 8.245-23.659 9.934-26.795 18.563-3.111 8.536 10.959 22.564 8.593 31.435-2.345 8.775-21.553 13.913-23.143 22.97-1.558 8.932 14.742 20.282 13.95 29.454-0.782 9.036-18.802 17.405-18.802 26.64 0 9.234 18.02 17.603 18.802 26.639 0.792 9.171-15.508 20.521-13.95 29.463 1.595 9.057 20.798 14.185 23.143 22.961 2.366 8.869-11.704 22.897-8.593 31.443 3.142 8.63 22.939 10.318 26.8 18.563 3.877 8.307-7.535 24.576-2.97 32.465 4.586 7.932 24.383 6.149 29.625 13.611 5.258 7.494-3.158 25.493 2.709 32.486 5.884 7.004 25.066 1.824 31.533 8.286 6.461 6.462 1.277 25.639 8.28 31.527 6.994 5.868 24.993-2.543 32.486 2.71 7.473 5.243 5.69 25.044 13.617 29.62 7.895 4.565 24.154-6.848 32.46-2.97 8.249 3.866 9.937 23.659 18.562 26.806 8.542 3.106 22.57-10.964 31.444-8.598 8.776 2.345 13.898 21.542 22.965 23.137 8.932 1.563 20.287-14.737 29.458-13.945 9.032 0.779 17.407 18.799 26.635 18.799zM316.073 686.419c109.875 109.875 288.021 109.875 397.897 0 109.868-109.875 109.868-288.021 0-397.897-109.881-109.875-288.022-109.875-397.897 0-109.869 109.875-109.869 288.01 0 397.897zM449.701 434.523c8.7-5.568 28.886-14.269 50.115-14.269 39.326 0 51.507 25.058 51.159 43.851-0.349 31.67-28.886 45.243-58.468 45.243h-17.053v22.969h17.053c22.273 0 50.463 11.485 50.463 38.283 0 18.097-11.484 34.106-39.674 34.106-18.097 0-35.499-8.004-45.243-14.965l-8.005 22.273c11.833 8.701 34.802 17.401 59.164 17.401 44.547 0 64.732-26.45 64.732-53.943 0-23.318-13.921-43.155-41.763-53.248v-0.696c27.842-5.568 50.463-26.45 50.463-58.12 0-36.194-28.189-67.864-82.481-67.864-25.405 0-47.679 8.004-58.815 15.313l8.353 23.666zM500.164 392.877c-26.778 0-49.208 8.484-60.279 15.75l-1.748 1.147 10.168 28.811 2.834-1.814c7.483-4.79 27.288-13.848 48.677-13.848 16.431 0 29.104 4.423 37.666 13.145 7.075 7.208 11.021 17.409 10.825 27.989-0.346 31.466-30.275 42.624-55.8 42.624h-19.721v28.305h19.721c19.212 0 47.795 9.485 47.795 35.615 0 19.686-13.834 31.438-37.006 31.438-17.3 0-34.349-7.794-43.692-14.468l-2.869-2.05-9.871 27.465 1.604 1.179c12.131 8.92 35.618 17.92 60.745 17.92 46.56 0 67.4-28.433 67.4-56.611 0-23.305-13.348-42.332-36.9-53.059 27.937-8.28 45.601-30.792 45.601-59.004 0-19.29-7.729-36.866-21.765-49.489-15.308-13.769-37.226-21.045-63.385-21.045z m-55.588 19.107c11.724-7.024 32.82-13.771 55.588-13.771 55.135 0 79.813 32.745 79.813 65.196 0 27.847-18.966 49.633-48.318 55.503l-2.145 0.429v4.754l1.759 0.638c25.797 9.351 40.004 27.371 40.004 50.739 0 23.654-16.255 51.275-62.064 51.275-22.835 0-44.139-7.729-55.966-15.742l6.157-17.132c10.672 6.846 26.968 13.5 43.893 13.5 31.219 0 42.342-18.996 42.342-36.774 0-26.884-26.729-40.951-53.131-40.951h-14.385v-17.633h14.385c27.959 0 60.747-12.54 61.136-47.881 0.222-11.982-4.28-23.583-12.354-31.806-9.604-9.783-23.557-14.743-41.474-14.743-20.282 0-39.252 7.723-48.682 12.982l-6.558-18.583zM515.999 346.12300000000005l8.025-16.269 17.953-2.606-12.992-12.663 3.07-17.874-16.056 8.442-16.056-8.442 3.07 17.874-12.992 12.663 17.953 2.606zM435.606 366.59299999999996l1.721-16.081 14.231-7.714-14.768-6.607-2.924-15.916-10.854 12.007-16.04-2.136 8.061 14.029-6.983 14.591 15.831-3.326zM596.401 366.59299999999996l-1.729-16.081-14.227-7.714 14.769-6.607 2.918-15.916 10.86 12.007 16.045-2.136-8.072 14.029 6.988 14.591-15.832-3.326z"  horiz-adv-x="1024" />

    
    <glyph glyph-name="NO2" unicode="&#58946;" d="M311.026 419.83L122.985 75.834l164.103 23.727 68.615-150.943 188.05 343.999zM711.632 419.83l188.047-343.996-164.115 23.727-68.604-150.943-188.049 343.999zM511.33 824.438c9.367 0 17.86-18.288 27.029-19.079 9.307-0.804 20.823 15.734 29.887 14.143 9.201-1.607 14.415-21.088 23.319-23.47 9.011-2.403 23.235 11.871 31.896 8.717 8.768-3.186 10.47-23.274 18.846-27.188 8.429-3.934 24.938 7.641 32.943 3.009 8.049-4.653 6.229-24.742 13.813-30.062 7.604-5.335 25.879 3.208 32.964-2.755 7.107-5.97 1.852-25.432 8.408-31.989 6.546-6.557 26.016-1.301 31.991-8.402 5.954-7.102-2.58-25.361 2.75-32.967 5.319-7.583 25.402-5.769 30.066-13.812 4.622-8.011-6.959-24.517-3.024-32.943 3.924-8.373 24.018-10.079 27.19-18.833 3.173-8.672-11.126-22.902-8.704-31.912 2.369-8.908 21.85-14.105 23.468-23.301 1.586-9.074-14.954-20.585-14.15-29.897 0.782-9.167 19.067-17.661 19.067-27.023s-18.285-17.87-19.067-27.023c-0.804-9.312 15.736-20.827 14.14-29.898-1.607-9.198-21.088-14.396-23.468-23.303-2.411-9.008 11.866-23.243 8.704-31.91-3.173-8.754-23.277-10.467-27.19-18.846-3.924-8.426 7.646-24.93 3.015-32.938-4.653-8.043-24.737-6.231-30.057-13.812-5.33-7.604 3.204-25.866-2.75-32.957-5.965-7.106-25.435-1.854-31.991-8.41-6.567-6.56-1.301-26.021-8.418-31.989-7.086-5.959-25.351 2.573-32.954-2.752-7.583-5.325-5.774-25.411-13.813-30.056-8.016-4.633-24.514 6.942-32.943 3.006-8.375-3.908-10.078-24.005-18.835-27.183-8.661-3.162-22.896 11.115-31.917 8.715-8.905-2.38-14.098-21.86-23.299-23.483-9.063-1.581-20.58 14.959-29.887 14.155-9.169-0.788-17.662-19.073-27.029-19.073-9.365 0-17.862 18.285-27.026 19.073-9.312 0.804-20.829-15.731-29.897-14.15-9.196 1.618-14.394 21.099-23.304 23.479-9.005 2.4-23.235-11.877-31.912-8.715-8.751 3.184-10.459 23.274-18.841 27.183-8.423 3.937-24.927-7.639-32.938-3.006-8.048 4.652-6.229 24.741-13.817 30.063-7.599 5.325-25.863-3.207-32.959 2.753-7.107 5.967-1.851 25.429-8.408 31.988-6.557 6.557-26.016 1.304-31.992 8.402-5.954 7.097 2.581 25.36-2.744 32.965-5.32 7.588-25.414 5.779-30.067 13.822-4.627 8.009 6.954 24.512 3.014 32.938-3.908 8.369-24.002 10.082-27.185 18.836-3.157 8.669 11.125 22.902 8.72 31.902-2.379 8.907-21.871 14.116-23.478 23.303-1.586 9.071 14.954 20.586 14.15 29.898-0.793 9.167-19.079 17.661-19.079 27.023 0 9.37 18.285 17.865 19.079 27.032 0.804 9.312-15.737 20.823-14.15 29.897 1.618 9.188 21.099 14.394 23.478 23.303 2.406 9-11.876 23.235-8.72 31.907 3.188 8.754 23.277 10.464 27.19 18.835 3.939 8.426-7.641 24.938-3.009 32.943 4.653 8.045 24.742 6.234 30.062 13.814 5.331 7.604-3.204 25.865 2.755 32.959 5.964 7.107 25.429 1.854 31.991 8.411 6.552 6.554 1.295 26.016 8.402 31.989 7.097 5.954 25.361-2.581 32.965 2.747 7.583 5.325 5.774 25.414 13.812 30.064 8.017 4.629 24.515-6.948 32.943-3.014 8.371 3.913 10.084 24.007 18.835 27.19 8.672 3.154 22.902-11.123 31.907-8.72 8.905 2.382 14.103 21.863 23.298 23.48 9.068 1.586 20.585-14.957 29.903-14.153 9.16 0.792 17.663 19.08 27.022 19.08zM312.38 691.725c109.875 109.875 288.022 109.875 397.897 0 109.869-109.875 109.869-288.021 0-397.898-109.881-109.875-288.022-109.875-397.897 0-109.869 109.877-109.869 288.011 0 397.898zM436.646 402.299v19.07l24.367 23.661c58.623 55.798 85.109 85.462 85.463 120.071 0 23.308-11.301 44.85-45.557 44.85-20.836 0-38.14-10.594-48.735-19.423l-9.888 21.896c15.892 13.419 38.493 23.308 64.979 23.308 49.441 0 70.276-33.902 70.276-66.745 0-42.378-30.724-76.633-79.105-123.249l-18.364-16.951v-0.707h103.119v-25.78H436.646zM585.91 399.591H433.939v22.923l25.188 24.458c59.422 56.558 84.308 85.469 84.642 118.156 0 15.711-5.567 42.115-42.85 42.115-21.271 0-38.578-11.776-47.001-18.796l-2.735-2.279-12.195 27.004 1.563 1.319c18.287 15.442 41.984 23.947 66.726 23.947 50.417 0 72.983-34.882 72.983-69.453 0-44.726-33.13-80.103-79.934-125.199l-14.083-13h99.667v-31.195z m-146.556 5.415h141.142v20.365h-103.12v4.6l19.235 17.755c45.791 44.121 78.234 78.671 78.234 121.26 0 29.541-17.696 64.038-67.569 64.038-22.76 0-44.573-7.575-61.661-21.371l7.597-16.823c11.068 8.599 27.627 17.829 47.707 17.829 30.673 0 48.264-17.334 48.264-47.558-0.37-36.308-27.918-66.46-86.303-122.032l-23.526-22.845v-15.218zM511.33 348.265l8.149-16.504 18.214-2.65-13.188-12.843 3.12-18.141-16.295 8.564-16.291-8.564 3.114 18.141-13.177 12.843 18.211 2.65zM429.754 369.04l1.74-16.323 14.446-7.821-14.985-6.708-2.972-16.149-11.009 12.181-16.276-2.168 8.18 14.24-7.091 14.809 16.07-3.382zM592.919 369.04l-1.755-16.323-14.436-7.821 14.986-6.708 2.961-16.149 11.01 12.181 16.286-2.168-8.186 14.24 7.086 14.809-16.064-3.382z"  horiz-adv-x="1024" />

    
    <glyph glyph-name="zuanshi" unicode="&#58958;" d="M308.825397 814.730159h585.142857v-308.825397H308.825397zM601.396825 522.15873h438.857143L601.396825-14.222222zM780.190476 522.15873h325.079365L601.396825-14.222222zM780.190476 522.15873h325.079365L893.968254 814.730159zM601.396825 522.15873H162.539683l438.857142-536.380952zM422.603175 522.15873H97.52381l503.873015-536.380952zM422.603175 522.15873H97.52381L308.825397 814.730159zM780.190476 522.15873H422.603175L601.396825 798.47619z"  horiz-adv-x="1202" />

    
    <glyph glyph-name="renzheng2" unicode="&#58932;" d="M512 896C229.376 896 0 666.624 0 384s229.376-512 512-512 512 229.376 512 512S794.624 896 512 896z m55.296-832L194.56 584.704l174.592 0.512 198.656-313.856 141.824 313.856 112.64-0.512-254.976-520.704z"  horiz-adv-x="1024" />

    
    <glyph glyph-name="professional-hexagon" unicode="&#59491;" d="M896 192c0-16.213333-8.96-30.293333-22.613333-37.546667l-337.066667-189.44c-6.826667-5.12-15.36-7.68-24.32-7.68-8.96 0-17.493333 2.56-24.32 7.68l-337.066667 189.44A42.282667 42.282667 0 0 0 128 192v384c0 16.213333 8.96 30.293333 22.613333 37.546667l337.066667 189.44c6.826667 5.12 15.36 7.68 24.32 7.68 8.96 0 17.493333-2.56 24.32-7.68l337.066667-189.44c13.653333-7.253333 22.613333-21.333333 22.613333-37.546667v-384M213.333333 512v-256h53.333334v85.333333H298.666667a85.333333 85.333333 0 0 1 85.333333 85.333334 85.333333 85.333333 0 0 1-85.333333 85.333333H213.333333m53.333334-128v85.333333h21.333333a42.666667 42.666667 0 0 0 42.666667-42.666666 42.666667 42.666667 0 0 0-42.666667-42.666667h-21.333333m149.333333 128v-256H469.333333v85.333333h32l28.16-85.333333h56.32l-33.706666 101.973333c20.906667 15.36 34.56 40.533333 34.56 68.693334a85.333333 85.333333 0 0 1-85.333334 85.333333h-85.333333M469.333333 384v85.333333h21.333334a42.666667 42.666667 0 0 0 42.666666-42.666666 42.666667 42.666667 0 0 0-42.666666-42.666667H469.333333m256 128c-58.88 0-106.666667-57.173333-106.666666-128s47.786667-128 106.666666-128 106.666667 57.173333 106.666667 128-47.786667 128-106.666667 128m0-53.333333c32.426667 0 58.88-33.28 58.88-74.666667s-26.453333-74.666667-58.88-74.666667c-32.426667 0-58.453333 33.28-58.453333 74.666667s26.026667 74.666667 58.453333 74.666667z"  horiz-adv-x="1024" />

    
    <glyph glyph-name="shaokao" unicode="&#58891;" d="M936.065 661.1320000000001l-57.778 57.772 33.114 33.079c9.825 9.812 9.825 25.743 0 35.568-9.826 9.849-25.743 9.826-35.569 0.023l-33.126-33.092-57.737 57.731c-26.922 26.947-73.815 26.934-100.788 0.011l-97.763-97.753c-27.032-27.151-27.629-70.905-1.78-98.811a182.702 182.702 0 0 1-23.521 1.524c-48.073 0-93.246-18.717-127.194-52.691-35.954-35.953-53.468-83.469-52.558-130.692l-1.878 1.876c-26.921 26.949-73.889 26.913-100.714 0.014l-97.79-97.754c-27.731-27.792-27.708-72.98 0.027-100.712l72.379-72.385-179.26-186.691c-9.604-10.013-9.284-25.94 0.737-35.56 4.865-4.689 11.154-7.011 17.416-7.011a25.13 25.13 0 0 1 18.153 7.724l178.543 185.949 72.088-72.095c13.437-13.398 31.269-20.779 50.28-20.779 19.038 0 36.922 7.406 50.382 20.855l97.767 97.715c27.782 27.744 27.805 72.934 0.05 100.726l-1.81 1.81c1.126-0.021 2.252-0.042 3.382-0.042 48.046 0 93.221 18.695 127.19 52.666 41.098 41.098 58.1 97.301 51.029 150.907 13.196-12.389 30.331-19.193 48.58-19.193 19.036 0 36.945 7.417 50.382 20.88l97.717 97.703c27.783 27.748 27.805 72.932 0.05 100.728zM523.949 220.11800000000005c8.157-8.154 8.157-21.421-0.022-29.574l-97.768-97.73c-7.911-7.872-21.714-7.872-29.527-0.074L216.579 272.797c-8.157 8.153-8.131 21.434 0 29.586l97.791 97.754c3.952 3.954 9.186 6.128 14.738 6.128 5.574 0 10.831-2.185 14.812-6.155l89.294-89.275c0.238-0.242 0.469-0.488 0.709-0.729 0.255-0.254 0.515-0.5 0.771-0.752l89.255-89.236z m128.79 125.559c-24.464-24.451-57.013-37.927-91.622-37.927-34.13 0-66.247 13.109-90.591 36.917l-2.002 2.002c-49.552 50.608-49.235 132.059 0.967 182.257 24.465 24.479 56.99 37.953 91.626 37.953 34.633 0 67.158-13.474 91.622-37.953 50.53-50.526 50.53-132.719 0-183.249z m247.707 250.31l-97.74-97.729c-7.86-7.885-21.645-7.935-29.505-0.025l-151.14 151.058c-8.157 8.181-8.157 21.495-0.023 29.65l97.713 97.705c3.957 3.966 9.236 6.14 14.84 6.14a20.791 20.791 0 0 0 14.788-6.128L900.47 625.575c8.158-8.156 8.158-21.421-0.024-29.588z"  horiz-adv-x="1024" />

    
    <glyph glyph-name="nao-copy" unicode="&#58880;" d="M554.651 895.939c-235.282-3.291-422.768-201.645-413.395-435.762-0.557-3.376-0.359-3.859-0.359-33.029l-93.305-151.489c-10.921-17.734 1.882-40.595 22.673-40.595h70.632v-116.482c0-50.962 41.462-92.424 92.428-92.424h153.708v-127.53c0-14.706 11.922-26.628 26.628-26.628 0 0 0 0 0 0h293.977c14.706 0 26.628 11.922 26.628 26.628 0 0 0 0 0 0 0 113.13 43.4 206.001 112.754 270.736 84.766 79.117 133.378 190.969 133.378 306.868 0 234.316-191.406 423.144-425.746 419.707zM810.685 208.294c-77.686-72.51-124.14-174.765-129.21-283.038h-241.186v127.53c-0 14.706-11.922 26.628-26.628 26.628h-180.336c-21.597 0-39.172 17.571-39.172 39.168v143.11c-0 14.706-11.922 26.628-26.628 26.628h-49.585c78.485 127.427 76.213 120.895 76.213 131.287v30.636c2.34 10.967-18.313 158.941 107.819 284.937 230.194 229.945 625.169 67.262 625.169-258.945 0-101.197-42.449-198.854-116.457-267.942zM829.122 651.778c-99.969 152.774-306.616 192.531-455.73 84.404-31.304-22.872-77.232-85.533-26.969-158.948 67.965-99.269 158.749-46.368 178.479-54.939 3.49-4.74 2.588-18.345 2.375-23.177-0.515-12-1.161-26.937 4.47-41.98 23.685-63.268 111.422-47.511 120.969-48.183 1.761-3.572 4.268-10.889 6.025-16.019 40.712-118.846 163.46-120.554 196.351-45.271 43.379 99.273 33.672 212.96-25.971 304.113zM806.289 368.989c-4.74-10.854-15.121-18.849-27.885-18.849-32.326 0-55.635 20.202-69.29 60.055-11.773 34.382-23.276 56.576-73.802 51.19-22.392-2.382-48.719 1.118-53.696 14.422-2.613 6.984-0.817 19.676-0.802 32.692 0.028 27.878-10.91 49.872-30.008 60.35-51.889 28.456-107.914-38.252-160.443 38.476-32.238 47.085 6.501 79.873 14.368 85.799 124.328 90.152 296.402 57.002 379.826-70.5 49.77-76.067 57.896-170.881 21.732-253.634z"  horiz-adv-x="1024" />

    
    <glyph glyph-name="gengduo" unicode="&#58926;" d="M1003.141565 385.981217c0-271.248696-219.89287-491.119304-491.119304-491.119304-271.270957 0-491.141565 219.870609-491.141565 491.119304S240.751304 877.100522 512.022261 877.100522c271.226435 0 491.119304-219.870609 491.119304-491.119305M456.370087 385.981217a49.90887 49.90887 0 1 1 99.84 0 49.90887 49.90887 0 0 1-99.84 0M689.819826 385.981217a49.93113 49.93113 0 1 1 99.862261 0.044522 49.93113 49.93113 0 0 1-99.862261-0.044522M222.920348 385.981217a49.90887 49.90887 0 1 1 99.84 0 49.90887 49.90887 0 0 1-99.84 0"  horiz-adv-x="1024" />

    
    <glyph glyph-name="xuexi" unicode="&#58881;" d="M242.282 280.922l-115.678-281.75 274.748 123.09 23.341 23.377-158.827 158.834z m624.615 301.799c36.536 36.562 36.536 58.364-0.021 94.922l-63.908 63.911c-36.555 36.556-58.365 36.556-94.905 0l-73.65-73.691 158.829-158.809 73.655 73.667z m-258.967 58.7L292.335 330.94 451.187 172.09l315.566 310.494zM417.379 742.813c-36.56 36.56-95.807 36.56-132.362 0L126.187 583.98l26.457-26.461-0.007-0.007 157.935-157.93 26.479 26.468-38.802 38.805 79.41 79.405-26.493 26.486-79.404-79.445-29.595 29.635 3.145-3.145 52.958 52.954-26.486 26.472-52.961-52.955-39.701 39.718 124.614 124.596c36.555 36.56 58.387 36.56 94.937 0l110.444-110.439 26.471 26.465-118.21 118.212z m450.038-450.022L745.37 414.842l-26.464-26.475L833.18 274.09c36.555-36.56 36.555-58.383 0-94.945L708.586 54.52l-39.711 39.707 65.159 65.16-26.472 26.486-65.163-65.167-26.46 26.461 79.415 79.412-26.49 26.512-79.402-79.445-0.002 0.002-42.64 42.662-26.471-26.468 161.77-161.772 26.467-26.472 26.467 26.472 132.363 132.355c36.555 36.566 36.555 95.812 0.001 132.367z"  horiz-adv-x="1024" />

    
    <glyph glyph-name="qinzi" unicode="&#58889;" d="M433.485 637.003c-68.48 9.994-126.32 68.615-120.043 139.79C319.477 847.992 380.387 901.333 449.38 895.541c69.02-5.523 125.054-68.346 113.9-139.143-13.604-85.264-62.957-129.256-129.794-119.396m290.247-350.727c-9.24-1.05-20.77 4.365-29.741 11.53-50.539 39.252-140.329 163.39-175.835 11.558-16.03-116.299 3.88-205.442 159.94-400 6.924-8.458 8.729-26.4-6.411-27.074-15.248-0.646-31.681 8.432-31.681 8.432-50.512 22.199-83.351 60.938-155.442 131.6-60.802 59.267-123.625 73.869-134.132 0.755-0.539-3.718-0.646-7.301-0.646-10.75 0.404-45.77 1.158-88.226 4.903-119.557 2.182-18.48-22.064-28.071-33.594-13.2-53.233 68.615-118.507 231.653-109.914 478.635 0 43.103-42.591 48.249-169.153-104.39C5.71 210.09-24.784 234.713 29.984 354.11c0 0 121.066 243.157 368.722 237.15 173.76-15.652 266.62-145.555 324.083-261.368 5.63-11.288 9.86-20.017 11.907-26.67 2.236-7.76-2.91-16.191-10.964-16.946m191.89-32.839c-52.45-10.533-121.2 19.477-132.73 73.491-11.423 54.257 38.98 111.934 91.432 122.468s104.149-24.731 115.679-78.987c11.395-54.014-21.794-106.439-74.38-116.972m276.13 24.623c-9.375-18.48-30.55-39.87-99.03-86.18-21.551-14.628-43.992-47.467-48.221-72.71-5.011-31.842 5.01-62.715 16.271-106.977 8.217-33.486 15.921-84.267 3.745-116.298-4.769-12.204-20.663-14.52-25.916-2.479-15.248 34.51-33.46 81.223-89.386 91.353-56.573 4.364-77.855-34.133-78.744-87.204-0.377-16.19-17.43-21.417-30.523-8.459-15.248 15.652-28.367 37.958-38.496 97.845-12.689 75.7 6.68 110.83-25 134.94-22.306 17.188-119.908 30.253-163.766 78.88-8.082 8.997-2.586 22.844 9.51 24.487 52.424 6.654 143.884-20.124 296.093-2.29 113.254 14.736 203.286 67.834 252.397 85.399 16.298 5.576 31.303-9.78 21.066-30.307"  horiz-adv-x="1195" />

    
    <glyph glyph-name="VIP" unicode="&#59064;" d="M245.953 5.492c-9.191 0-16.684 7.376-16.684 16.469 0 9.818 7.459 11.188 15.496 11.188H779.68c4.918 0 11.914-0.445 15.676-4.225 1.783-1.814 2.674-4.158 2.641-6.979 0-9.076-7.492-16.452-16.666-16.452H245.953z m175.178 121.054c-60.395 0-119.915 0.066-176.598 0.28-13.349 0.116-16.848 12.739-21.27 28.696l-2.344 8.168-74.568 251.464-14.324 48.068c-33.926 4.803-59.355 33.548-59.355 67.326 0 37.49 31.023 67.969 69.174 67.969 38.185 0 69.24-30.479 69.24-67.969 0-13.251-3.795-25.874-10.974-36.699l115.08-69.224c10.116-6.138 20.528-12.376 30.841-18.415 29.67 52.805 59.652 106.565 88.893 159.023l40.215 72.062c-19.703 12.425-31.865 34.174-31.865 57.193 0 37.524 31.039 68.019 69.224 68.019 38.175 0 69.199-30.494 69.199-68.019 0-22.524-11.221-43.365-30.131-56.055l31.451-56.27a119226.295 119226.295 0 0 1 97.424-174.519l1.154-1.947 1.156 1.287a95854.016 95854.016 0 0 1 140.293 84.339c-6.502 10.643-9.934 22.688-9.934 34.933 0 37.524 31.057 68.035 69.24 68.035 18.777 0 36.303-7.244 49.438-20.445 12.738-12.821 19.67-29.702 19.537-47.606 0-32.97-24.719-61.599-57.688-67.028L805.983 163.69c-1.055-3.613-1.914-7.128-2.672-10.462-3.4-14.158-6.305-26.402-23.861-26.402-55.544 0-296.885-0.28-358.319-0.28zM172.109 446.49c3.186-10.577 6.402-21.27 9.505-31.896l60.956-205.805 16.237-54.471c84.256 0 428.531 0.264 512.886 0.264l27.193 101.78 60.824 205.441a72.388 72.388 0 0 0-12.311 5.578l-147.455-88.745c-6.072-3.646-13.365-7.343-21.418-7.343-2.18 0-4.291 0.264-6.436 0.825-10.463 2.739-16.535 11.336-21.057 19.389a129339.806 129339.806 0 0 1-97.457 174.568l-33.852 60.609c-2.41-0.265-4.869-0.43-7.36-0.43-1.766 0-3.433 0.066-5.165 0.231-10.94-19.687-99.948-179.172-133.479-239.138-5.924-10.577-14.025-14.01-18.333-15.099-2.476-0.644-4.785-0.957-7.079-0.957-5.66 0-11.469 1.732-17.244 5.165a3050.586 3050.586 0 0 0-33.233 19.867c-3.729 2.344-7.541 4.604-11.353 6.882l-111.797 67.259c-2.821-1.452-5.709-2.689-8.646-3.795l6.074-20.179z m710.243 114.899c-19.703 0-35.742-15.742-35.742-35.132 0-19.339 16.039-35.098 35.742-35.098s35.775 15.759 35.775 35.098c0 19.39-16.072 35.132-35.775 35.132z m-740.374 4.257c-19.719 0-35.759-15.742-35.759-35.098 0-19.373 16.04-35.132 35.759-35.132 9.752 0 18.844 3.763 25.643 10.594 6.568 6.601 10.148 15.313 10.1 24.521-0.001 19.373-16.041 35.115-35.743 35.115z m370.521 163.942c-19.72 0-35.774-15.742-35.774-35.099 0-19.323 16.055-35.099 35.774-35.099 19.695 0 35.734 15.775 35.734 35.099 0 19.356-16.039 35.099-35.734 35.099z"  horiz-adv-x="1024" />

    
    <glyph glyph-name="jingxuan" unicode="&#58887;" d="M511.552 606.528l61.312-123.008 136-19.328L610.752 368l23.744-135.488-121.856 63.616-121.472-64.384 22.784 135.488-98.752 95.68 135.936 20.224zM512-128c-282.304 0-512 229.76-512 512.064s229.696 512 512 512 512-229.696 512-512S794.304-128 512-128zM512 788.224a404.608 404.608 0 0 1-404.16-404.16A404.608 404.608 0 0 1 512-20.16a404.544 404.544 0 0 1 404.224 404.224A404.608 404.608 0 0 1 512 788.224z"  horiz-adv-x="1024" />

    
    <glyph glyph-name="ic_local_drink_px" unicode="&#59154;" d="M128 810.666667l85.973333-778.026667A85.205333 85.205333 0 0 1 298.666667-42.666667h426.666666c43.733333 0 79.786667 32.853333 84.693334 75.306667L896 810.666667H128z m384-725.333334c-70.613333 0-128 57.386667-128 128 0 85.333333 128 230.4 128 230.4S640 298.666667 640 213.333333c0-70.613333-57.386667-128-128-128z m269.866667 469.333334h-539.733334l-18.773333 170.666666h577.493333l-18.986666-170.666666z"  horiz-adv-x="1024" />

    
    <glyph glyph-name="vip" unicode="&#58953;" d="M670.542 464.287h-30.369v-92.001h27.541c18.161 0 31.955 4.094 41.385 12.282 9.428 8.188 14.143 19.923 14.143 35.208-0.001 29.672-17.567 44.511-52.7 44.511zM128.555 543.212v-352.093h768.108V543.212H128.555z m226.282-283.323h-33.049L238.72 490.487h33.049l62.079-180.281c2.084-5.954 3.622-12.854 4.615-20.692h0.745c0.793 6.848 2.531 13.845 5.21 20.99l63.269 179.983h31.858l-84.708-230.598z m193.507 205.44h-22.182v-180.281h22.182v-25.159h-74.137v25.159h22.182V465.329h-22.182v25.159h74.137v-25.159z m182.044-99.371c-16.078-14.045-36.176-20.67-60.292-19.874h-29.923v-86.195h-29.774V490.487h65.503c24.91 0 44.237-6.006 57.984-18.013 13.745-12.009 20.618-29.178 20.618-51.509 0-22.628-8.039-40.965-24.116-55.007z"  horiz-adv-x="1024" />

    
    <glyph glyph-name="se" unicode="&#58949;" d="M190.50796 507.889778h419.183192c35.524525 48.845576 65.719596 95.91596 92.362989 142.983757a8.066586 8.066586 0 0 1 0 8.881132c-1.775192 2.664727-4.441212 3.55297-7.992888 3.552969h-371.225859a1115.688081 1115.688081 0 0 0-83.480566-123.446303H91.928566c69.272566 89.69697 118.116848 172.290586 160.74602 262.877091h140.320323c-14.209293-31.084606-27.531636-61.279677-42.629172-88.81002h445.825293c17.762263 0 33.74804-7.992889 43.516122-23.978667 8.881131-15.985778 9.769374-33.74804 0.889535-49.733818-25.755152-47.069091-51.510303-89.698263-81.705374-132.327434h61.279677c32.859798 0 60.391434-26.642101 60.391434-59.501899v-182.949495c0-32.859798-27.531636-58.614949-60.391434-58.61495h-556.838788v-157.19305c0-18.650505 15.097535-33.74804 33.74804-33.74804h634.991192v-50.622061H190.50796c-31.971556 0-58.613657 25.755152-58.613657 58.614949V448.387879c-0.001293 32.859798 26.642101 59.501899 58.613657 59.501899z m72.824242-250.444283h172.291879v199.822222H280.206222c-9.769374 0-16.87402-7.992889-16.87402-16.87402v-182.948202z m483.126303 182.949495c0 8.881131-7.104646 16.87402-16.87402 16.87402H570.614949v-199.822222h158.969536c9.769374 0 16.87402 7.103354 16.87402 16.87402V440.39499z"  horiz-adv-x="1024" />

    
    <glyph glyph-name="weibiaoti---" unicode="&#58904;" d="M623.232 472.397c6.656 0 13.235-0.486 19.789-1.203-17.766 82.15-106.24 143.206-207.232 143.206-112.896 0-205.389-76.39-205.389-173.414 0-56.013 30.771-102.016 82.176-137.677l-20.531-61.363 71.782 35.738c25.702-5.043 46.285-10.24 71.936-10.24 6.426 0 12.826 0.333 19.174 0.819-4.019 12.921-6.339 27.777-6.35 43.173 0.027 88.642 77.083 160.962 174.644 160.962zM512.794 527.693c15.462 0 25.702-10.112 25.702-25.446 0-15.283-10.24-25.523-25.702-25.523-15.386 0-30.848 10.24-30.848 25.523 0 15.334 15.462 25.446 30.848 25.446zM369.050 476.723c-15.36 0-30.899 10.24-30.899 25.523 0 15.36 15.539 25.446 30.899 25.446 15.411 0 25.651-10.086 25.651-25.446 0-15.283-10.24-25.523-25.651-25.523zM810.675 313.446c0 81.536-82.176 147.968-174.464 147.968-97.715 0-174.669-66.458-174.669-147.968 0-81.664 76.954-147.994 174.669-147.994 20.454 0 41.088 5.12 61.619 10.24l56.32-30.643-15.462 50.944c41.267 30.746 71.987 71.45 71.987 117.453zM579.584 338.97c-10.214 0-20.531 10.086-20.531 20.429 0 10.163 10.317 20.378 20.531 20.378 15.539 0 25.702-10.214 25.702-20.378 0-10.342-10.163-20.429-25.702-20.429zM692.557 338.97c-10.163 0-20.403 10.086-20.403 20.429 0 10.163 10.24 20.378 20.403 20.378 15.386 0 25.702-10.214 25.702-20.378 0-10.342-10.317-20.429-25.702-20.429zM520.55 896c282.778 0 512-229.222 512-512s-229.222-512-512-512-512 229.222-512 512 229.222 512 512 512zM631.757 476.672c6.656 0 13.235-0.486 19.789-1.203-17.766 82.15-106.24 143.206-207.232 143.206-112.896 0-205.389-76.39-205.389-173.414 0-56.013 30.771-102.016 82.176-137.677l-20.531-61.363 71.782 35.738c25.702-5.043 46.285-10.24 71.936-10.24 6.426 0 12.826 0.333 19.174 0.819-4.019 12.921-6.339 27.777-6.35 43.173 0.027 88.667 77.083 160.962 174.644 160.962zM521.344 531.968c15.462 0 25.702-10.112 25.702-25.446 0-15.283-10.24-25.523-25.702-25.523-15.386 0-30.848 10.24-30.848 25.523 0 15.334 15.462 25.446 30.848 25.446zM377.574 480.998c-15.36 0-30.899 10.24-30.899 25.523 0 15.36 15.539 25.446 30.899 25.446 15.411 0 25.651-10.086 25.651-25.446 0.026-15.283-10.24-25.523-25.651-25.523zM819.2 317.722c0 81.536-82.176 147.968-174.464 147.968-97.715 0-174.669-66.458-174.669-147.968 0-81.664 76.954-147.994 174.669-147.994 20.454 0 41.088 5.12 61.619 10.24l56.32-30.643-15.462 50.944c41.267 30.746 71.987 71.45 71.987 117.453zM588.109 343.245c-10.214 0-20.531 10.086-20.531 20.429 0 10.163 10.317 20.378 20.531 20.378 15.539 0 25.702-10.214 25.702-20.378 0.026-10.342-10.163-20.429-25.702-20.429zM701.082 343.245c-10.163 0-20.403 10.086-20.403 20.429 0 10.163 10.24 20.378 20.403 20.378 15.386 0 25.702-10.214 25.702-20.378 0.026-10.342-10.317-20.429-25.702-20.429z"  horiz-adv-x="1032" />

    
    </font>
</defs>
</svg>
